<?xml version="1.0" standalone="no"?>
<!DOCTYPE svg PUBLIC "-//W3C//DTD SVG 1.1//EN" "http://www.w3.org/Graphics/SVG/1.1/DTD/svg11.dtd" >
<svg xmlns="http://www.w3.org/2000/svg">
<metadata></metadata>
<defs>
<font id="politicabold" horiz-adv-x="845" >
<font-face units-per-em="2048" ascent="1638" descent="-410" />
<missing-glyph horiz-adv-x="409" />
<glyph unicode="&#xfb01;" horiz-adv-x="1110" d="M10 973v182h123v139q0 55 21.5 105.5t58.5 87.5t86 58.5t107 21.5h126l-6 -185h-116q-41 0 -66 -23.5t-25 -64.5v-139h547v-903q0 -41 24.5 -64.5t65.5 -23.5h123v-184h-127q-57 0 -106 21.5t-86 58t-58.5 87t-21.5 105.5v721h-361v-1018q0 -55 -21.5 -105.5t-58 -87 t-87 -58t-109.5 -21.5v184q41 0 65.5 23.5t24.5 64.5v1018h-123zM680 1350v217h184v-217h-184z" />
<glyph unicode="&#xfb02;" horiz-adv-x="1110" d="M10 973v182h123v139q0 55 21.5 105.5t58.5 87.5t86 58.5t107 21.5h460v-1315q0 -41 24.5 -64.5t65.5 -23.5h123v-184h-127q-57 0 -106 21.5t-86 58t-58.5 87t-21.5 105.5v1130h-270q-41 0 -66 -23.5t-25 -64.5v-139h177v-182h-177v-1018q0 -55 -21.5 -105.5t-58 -87 t-87 -58t-109.5 -21.5v184q41 0 65.5 23.5t24.5 64.5v1018h-123z" />
<glyph horiz-adv-x="2048" />
<glyph horiz-adv-x="2048" />
<glyph unicode="&#xd;" horiz-adv-x="1024" />
<glyph unicode=" "  horiz-adv-x="409" />
<glyph unicode="&#x09;" horiz-adv-x="409" />
<glyph unicode="&#xa0;" horiz-adv-x="409" />
<glyph unicode="!" horiz-adv-x="638" d="M225 0v217h185v-217h-185zM225 422v1208h185v-1208h-185z" />
<glyph unicode="&#x22;" horiz-adv-x="737" d="M133 1036v529h184v-529h-184zM420 1036v529h184v-529h-184z" />
<glyph unicode="#" horiz-adv-x="1200" d="M133 522v183h189l61 190h-178v182h233l94 295h164l-92 -295h223l95 295h163l-92 -295h195v-182h-256l-58 -190h242v-183h-299l-100 -317h-164l100 317h-225l-100 -317h-164l98 317h-129zM485 705h226l61 190h-227z" />
<glyph unicode="$" horiz-adv-x="835" d="M82 475v182h184v-182q0 -39 21.5 -61.5t56.5 -26.5v373q-18 10 -61 40.5t-87 74t-79 95.5t-35 107v41q0 55 20.5 103.5t55.5 85t83 59.5t103 25v186h143v-186q55 -2 103.5 -23.5t85.5 -58.5t57.5 -86t20.5 -105v-41h-185v41q0 39 -22.5 62.5t-59.5 25.5v-329h5q2 0 2 -3 q74 -49 131 -104q49 -47 89 -106.5t40 -118.5v-70q0 -55 -20.5 -104t-57.5 -86t-85 -59.5t-104 -22.5v-203h-143v203q-55 2 -103 23.5t-83 58.5t-55.5 86t-20.5 104zM266 1077q0 -14 21.5 -37.5t56.5 -52.5v219q-35 -4 -56.5 -27.5t-21.5 -60.5v-41zM487 387q37 2 59.5 25.5 t22.5 62.5v70q0 29 -23.5 59.5t-58.5 59.5v-277z" />
<glyph unicode="%" horiz-adv-x="1544" d="M123 1016q0 -55 18.5 -105.5t49 -87.5t72.5 -58.5t91 -21.5h103q49 0 91 21.5t72.5 58.5t49 87.5t18.5 105.5v305q0 57 -18.5 106.5t-49 86t-72.5 58t-91 21.5h-103q-49 0 -91 -21.5t-72.5 -58t-49 -86t-18.5 -106.5v-305zM297 1016v305q0 41 17.5 69.5t39.5 28.5h103 q23 0 40 -28.5t17 -69.5v-305q0 -41 -17.5 -69.5t-39.5 -28.5h-103q-23 0 -40 28.5t-17 69.5zM430 0l516 1634h184l-516 -1634h-184zM856 254q0 -55 18.5 -105.5t49 -87t72.5 -58t91 -21.5h103q49 0 91 21.5t72.5 58t49 87t18.5 105.5v305q0 57 -18.5 106.5t-49 86t-72.5 58 t-91 21.5h-103q-49 0 -91 -21.5t-72.5 -58t-49 -86t-18.5 -106.5v-305zM1030 254v305q0 41 17.5 69.5t39.5 28.5h103q23 0 40 -28.5t17 -69.5v-305q0 -41 -17.5 -69.5t-39.5 -28.5h-103q-23 0 -40 28.5t-17 69.5z" />
<glyph unicode="&#x26;" horiz-adv-x="1134" d="M102 236v305q0 80 48.5 148.5t123.5 96.5q-70 31 -113.5 96.5t-43.5 145.5v295q0 123 76.5 185.5t199.5 62.5h115q123 0 193.5 -62.5t70.5 -185.5v-162h-184v162q0 35 -15.5 49t-64.5 14h-115q-49 0 -70.5 -14t-21.5 -49v-295q0 -33 15.5 -59.5t37 -47t45 -31.5t39.5 -11 h70v-185h-70q-16 0 -41.5 -12t-50 -32.5t-42 -48.5t-17.5 -60v-285q0 -49 28.5 -65.5t77.5 -16.5h115q35 0 57.5 16.5t22.5 65.5v694h184v-73h260v-185h-260v-456q0 -123 -70.5 -184.5t-193.5 -61.5h-117q-123 0 -206 61.5t-83 184.5z" />
<glyph unicode="'" horiz-adv-x="450" d="M133 1036v529h184v-529h-184z" />
<glyph unicode="(" horiz-adv-x="686" d="M82 778q0 299 87 529.5t234 416.5h201q-160 -199 -252 -437t-92 -509q0 -270 92 -508.5t252 -437.5h-201q-147 188 -234 417.5t-87 528.5z" />
<glyph unicode=")" horiz-adv-x="686" d="M82 -168q160 199 252 437.5t92 508.5t-92 509t-252 437h201q147 -186 234 -416.5t87 -529.5t-87 -528.5t-234 -417.5h-201z" />
<glyph unicode="*" horiz-adv-x="892" d="M123 1272v147l252 -65v233h143v-233l252 65v-147l-231 -60l198 -208l-100 -103l-191 207l-184 -201l-106 97l198 208z" />
<glyph unicode="+" horiz-adv-x="880" d="M82 621v200h256v234h203v-234h258v-200h-258v-283h-203v283h-256z" />
<glyph unicode="," horiz-adv-x="503" d="M176 317h184v-636h-184v636z" />
<glyph unicode="-" horiz-adv-x="655" d="M82 629v182h491v-182h-491z" />
<glyph unicode="." horiz-adv-x="407" d="M102 100q0 41 30 72t71 31t71.5 -31t30.5 -72t-30.5 -70.5t-71.5 -29.5t-71 29.5t-30 70.5z" />
<glyph unicode="/" horiz-adv-x="716" d="M-20 -123l593 1884h164l-594 -1884h-163z" />
<glyph unicode="0" horiz-adv-x="897" d="M113 252v1063q0 57 21.5 106t58 86t86 58.5t106.5 21.5h127q57 0 106.5 -21.5t86 -58.5t58 -86t21.5 -106v-1063q0 -55 -21.5 -105.5t-58 -87t-86 -58t-106.5 -21.5h-127q-57 0 -106.5 21.5t-86 58t-58 87t-21.5 105.5zM297 252q0 -41 23.5 -64.5t64.5 -23.5h127 q41 0 64.5 23.5t23.5 64.5v1063q0 41 -23.5 64.5t-64.5 23.5h-127q-41 0 -64.5 -23.5t-23.5 -64.5v-1063z" />
<glyph unicode="1" horiz-adv-x="571" d="M133 1382v185h305v-1567h-184v1382h-121z" />
<glyph unicode="2" horiz-adv-x="796" d="M61 0v102q0 109 11.5 193t37 154.5t69.5 132t112 125.5q61 57 113.5 105t92.5 103.5t62.5 125t22.5 169.5v84q0 49 -31 80t-80 31h-115q-49 0 -79.5 -31t-30.5 -80h-185q0 61 24 115.5t63.5 94.5t93 62.5t114.5 22.5h115q61 0 115.5 -22.5t94.5 -62.5t62.5 -94t22.5 -116 v-84q0 -106 -28.5 -196t-77 -166t-108.5 -140.5t-122 -121.5q-68 -61 -104.5 -112.5t-55 -97.5t-21.5 -92t-3 -100h520v-184h-705z" />
<glyph unicode="3" horiz-adv-x="882" d="M86 1303v40q0 123 76 184.5t198 61.5h117q123 0 201 -61.5t78 -184.5v-243q0 -33 -5.5 -69t-18.5 -69.5t-35.5 -60.5t-57.5 -43q37 -14 62.5 -42t41 -62.5t21.5 -71.5t6 -70v-376q0 -123 -78 -184.5t-200 -61.5h-117q-123 0 -199 61.5t-76 184.5v342h185v-342 q0 -35 20.5 -48.5t69.5 -13.5h114q49 0 73 13.5t24 48.5v376q0 16 -8.5 40t-22.5 44.5t-34.5 34.5t-45.5 14h-110v185h110q25 0 43.5 20.5t29.5 48t17 56t6 45.5v243q0 35 -30.5 48.5t-65.5 13.5h-115q-35 0 -62.5 -13.5t-27.5 -48.5v-40h-184z" />
<glyph unicode="4" horiz-adv-x="937" d="M0 274l438 1293h332v-1108h107v-185h-107v-286h-184v286h-586zM246 459h340v923h-21z" />
<glyph unicode="5" horiz-adv-x="833" d="M80 236v342h184v-342q0 -35 20.5 -48.5t69.5 -13.5h115q49 0 72.5 13.5t23.5 48.5v401q0 55 -16.5 92t-71.5 37h-352v799h627v-183h-443v-432h168q145 0 209 -84t64 -229v-401q0 -123 -78 -184.5t-201 -61.5h-117q-123 0 -198.5 61.5t-75.5 184.5z" />
<glyph unicode="6" horiz-adv-x="886" d="M113 254v1063q0 57 21.5 106.5t58 86t86 58t106.5 21.5h127q57 0 106.5 -21.5t86 -58t58 -86t21.5 -106.5v-156h-184v156q0 41 -23.5 64.5t-64.5 23.5h-127q-41 0 -64.5 -23.5t-23.5 -64.5v-449q14 4 29 11q27 10 59 10h127q57 0 106.5 -21.5t86 -58.5t58 -87t21.5 -106 v-362q0 -55 -21.5 -105.5t-58 -87t-86 -58t-106.5 -21.5h-127q-57 0 -106.5 21.5t-86 58t-58 87t-21.5 105.5zM297 254q0 -41 23.5 -64.5t64.5 -23.5h127q41 0 64.5 23.5t23.5 64.5v362q0 41 -23.5 65t-64.5 24h-127q-41 0 -64.5 -23t-23.5 -64v-364z" />
<glyph unicode="7" horiz-adv-x="706" d="M0 1393v184h676l-430 -1577h-185l383 1393h-444z" />
<glyph unicode="8" horiz-adv-x="880" d="M102 254v356q0 86 38 151.5t114 94.5q-70 31 -103.5 93.5t-33.5 148.5v217q0 55 21.5 105t58 87t86 58.5t106.5 21.5h103q57 0 106 -21.5t86 -58.5t58.5 -87t21.5 -105v-217q0 -86 -34 -148.5t-103 -93.5q76 -29 113.5 -94.5t37.5 -151.5v-356q0 -55 -21.5 -105.5 t-58 -87t-86 -58t-106.5 -21.5h-131q-57 0 -106.5 21.5t-86.5 58t-58.5 87t-21.5 105.5zM287 254q0 -41 23.5 -64.5t64.5 -23.5h131q41 0 64.5 23.5t23.5 64.5v356q0 55 -24.5 99.5t-65.5 44.5h-127q-41 0 -65.5 -44t-24.5 -100v-356zM301 1098q0 -55 22.5 -97.5t63.5 -42.5 h107q41 0 63.5 42t22.5 98v217q0 41 -24 64.5t-64 23.5h-103q-41 0 -64.5 -23.5t-23.5 -64.5v-217z" />
<glyph unicode="9" horiz-adv-x="886" d="M102 256v156h185v-156q0 -41 23.5 -64.5t64.5 -23.5h127q41 0 64.5 23.5t23.5 64.5v449q-14 -4 -29 -11q-27 -10 -59 -10h-127q-57 0 -106.5 21.5t-86.5 58.5t-58.5 87t-21.5 105v363q0 55 21.5 105.5t58.5 87t86 58t107 21.5h127q57 0 106 -21.5t86 -58t58.5 -87 t21.5 -105.5v-1063q0 -57 -21.5 -106.5t-58.5 -86t-86 -58t-106 -21.5h-127q-57 0 -106.5 21.5t-86.5 58t-58.5 86t-21.5 106.5zM287 956q0 -41 23.5 -64.5t64.5 -23.5h127q41 0 64.5 22.5t23.5 63.5v365q0 41 -23.5 64.5t-64.5 23.5h-127q-41 0 -64.5 -23.5t-23.5 -64.5 v-363z" />
<glyph unicode=":" horiz-adv-x="407" d="M102 100q0 41 30 72t71 31t71.5 -31t30.5 -72t-30.5 -70.5t-71.5 -29.5t-71 29.5t-30 70.5zM102 920q0 41 30 71.5t71 30.5t71.5 -30.5t30.5 -71.5t-30.5 -71t-71.5 -30t-71 30t-30 71z" />
<glyph unicode=";" horiz-adv-x="497" d="M164 948q0 41 29.5 72t70.5 31t72 -31t31 -72t-31 -70.5t-72 -29.5t-70.5 29.5t-29.5 70.5zM170 317h184v-636h-184v636z" />
<glyph unicode="&#x3c;" horiz-adv-x="712" d="M61 850l383 496l150 -66l-332 -430l348 -447l-147 -67z" />
<glyph unicode="=" horiz-adv-x="880" d="M82 440v185h717v-185h-717zM82 811v184h717v-184h-717z" />
<glyph unicode="&#x3e;" horiz-adv-x="712" d="M102 403l349 447l-332 430l149 66l383 -496l-401 -514z" />
<glyph unicode="?" horiz-adv-x="876" d="M82 1165v213q0 57 21.5 106.5t58.5 86.5t86 58.5t106 21.5h168q57 0 106.5 -21.5t86.5 -58.5t58.5 -86t21.5 -107v-231q0 -39 -14.5 -88t-43 -91t-74 -71t-106.5 -29q-16 0 -33.5 -3t-31 -12t-21.5 -27.5t-8 -51.5v-375h-184v375q0 135 74.5 207t203.5 72q23 0 38 29.5 t15 64.5v231q0 41 -23.5 64.5t-64.5 23.5h-168q-41 0 -64.5 -23.5t-23.5 -64.5v-213h-184zM279 0v217h184v-217h-184z" />
<glyph unicode="@" horiz-adv-x="1452" d="M82 319v529q0 94 35 176t96 143.5t143 96t176 34.5h388q92 0 174 -34.5t143 -96t97 -143.5t36 -176v-436q0 -49 -19.5 -93.5t-52 -77t-77.5 -52t-95 -19.5h-256v117q-51 -41 -104 -74q-45 -29 -95 -51.5t-91 -22.5q-82 0 -139.5 57.5t-57.5 139.5v432q0 55 21.5 105.5 t58.5 87t86 58t106 21.5h127q57 0 106.5 -21.5t86.5 -58t58.5 -87t21.5 -105.5v-414h63q18 0 43 14.5t25 43.5v436q0 53 -21.5 101t-58.5 85t-85 58.5t-101 21.5h-388q-53 0 -101 -21.5t-85 -58.5t-58.5 -85t-21.5 -101v-529q0 -53 21.5 -101t58.5 -85t85 -58.5t101 -21.5 h261v-184h-261q-92 0 -174 35t-143 96t-97 143t-36 176zM567 336q0 -10 4 -11t9 -1q41 0 91 23.5t95 51.5q53 35 104 76v293q0 55 -23.5 71.5t-64.5 16.5h-127q-41 0 -64.5 -23.5t-23.5 -64.5v-432z" />
<glyph unicode="A" horiz-adv-x="933" d="M20 0l265 1581q4 25 29.5 47.5t58.5 22.5h182q33 0 58.5 -21.5t29.5 -48.5l270 -1581h-184l-74 397h-379l-71 -397h-185zM303 582h326l-142 858q0 8 -4 14q-8 12 -16 12h-6q-12 0 -15.5 -10t-5.5 -16z" />
<glyph unicode="B" horiz-adv-x="958" d="M143 0v1638h453q51 0 95 -19.5t78 -53t53.5 -77.5t19.5 -95v-295q0 -80 -44 -145.5t-114 -96.5q76 -29 124 -94.5t48 -151.5v-364q0 -51 -19.5 -95.5t-53 -78t-77.5 -53t-96 -19.5h-467zM328 184h280q31 0 47.5 16.5t16.5 45.5v364q0 41 -23.5 88t-64.5 66h-256v-580z M328 948h258q41 18 55 64.5t14 81.5v299q0 25 -15 44t-44 19h-268v-508z" />
<glyph unicode="C" horiz-adv-x="927" d="M113 274v1082q0 61 23.5 115.5t63.5 94.5t93 62.5t115 22.5h122q61 0 115.5 -22.5t94.5 -62.5t62.5 -94.5t22.5 -115.5v-258h-184v258q0 49 -30.5 79.5t-80.5 30.5h-122q-49 0 -80 -30.5t-31 -79.5v-1082q0 -49 30.5 -79.5t80.5 -30.5h122q41 0 62.5 8t31 22.5t11.5 35 t2 44.5v324h4h184v-324q0 -61 -22.5 -114.5t-62.5 -93t-94 -63t-116 -23.5h-122q-61 0 -114.5 23.5t-93.5 63t-63.5 93t-23.5 114.5z" />
<glyph unicode="D" horiz-adv-x="968" d="M143 0v1638h418q61 0 115.5 -21.5t94.5 -58t62.5 -89t22.5 -113.5v-1061q0 -61 -22.5 -114.5t-62.5 -93.5t-94 -63.5t-116 -23.5h-418zM328 184h233q49 0 80 31t31 80v1061q0 47 -31 72.5t-80 25.5h-233v-1270z" />
<glyph unicode="E" horiz-adv-x="774" d="M143 0v1638h590v-184h-405v-459h350v-184h-350v-627h405v-184h-590z" />
<glyph unicode="F" horiz-adv-x="755" d="M143 0v1638h592v-204h-407v-439h350v-184h-350v-811h-185z" />
<glyph unicode="G" horiz-adv-x="919" d="M113 274v1082q0 61 23.5 115.5t63.5 94.5t93 62.5t115 22.5h114q61 0 115.5 -22.5t94.5 -62.5t62.5 -94.5t22.5 -115.5v-258h-184v258q0 49 -31 79.5t-80 30.5h-114q-49 0 -80 -30.5t-31 -79.5v-1082q0 -49 30.5 -79.5t80.5 -30.5h114q41 0 62.5 14.5t33 32.5t13.5 36.5 t2 26.5v385h-209v185h393v-570q0 -61 -22.5 -114.5t-62.5 -93t-94 -63t-116 -23.5h-114q-61 0 -114.5 23.5t-93.5 63t-63.5 93t-23.5 114.5z" />
<glyph unicode="H" horiz-adv-x="993" d="M143 0v1638h185v-643h338v643h184v-1638h-184v813h-338v-813h-185z" />
<glyph unicode="I" horiz-adv-x="491" d="M154 0v1638h184v-1638h-184z" />
<glyph unicode="J" horiz-adv-x="878" d="M61 274v324h185v-324q0 -49 30.5 -79.5t79.5 -30.5h115q49 0 80 30.5t31 79.5v1364h184v-1364q0 -61 -22.5 -114.5t-62.5 -93t-94.5 -63t-115.5 -23.5h-115q-61 0 -114.5 23.5t-93 63t-63.5 93t-24 114.5z" />
<glyph unicode="K" horiz-adv-x="1036" d="M143 0v1638h183v-643h112l385 643h193l-424 -725v-18l424 -895h-193l-385 813h-112v-813h-183z" />
<glyph unicode="L" horiz-adv-x="692" d="M104 0v1638h183v-1454h405v-184h-588z" />
<glyph unicode="M" horiz-adv-x="1421" d="M123 0l63 1638h367l158 -1187l161 1187h365l61 -1638h-184l-59 1454h-21l-231 -1434h-185l-229 1434h-20l-62 -1454h-184z" />
<glyph unicode="N" horiz-adv-x="1095" d="M143 0v1638h328l287 -1454h10v1454h184v-1638h-323l-291 1454h-10v-1454h-185z" />
<glyph unicode="O" horiz-adv-x="937" d="M113 274v1082q0 61 23.5 115.5t63.5 94.5t93 62.5t115 22.5h122q61 0 115.5 -22.5t94.5 -62.5t62.5 -94.5t22.5 -115.5v-1082q0 -61 -22.5 -114.5t-62.5 -93t-94 -63t-116 -23.5h-122q-61 0 -114.5 23.5t-93.5 63t-63.5 93t-23.5 114.5zM297 274q0 -49 30.5 -79.5 t80.5 -30.5h122q49 0 80 30.5t31 79.5v1082q0 49 -30.5 79.5t-80.5 30.5h-122q-49 0 -80 -30.5t-31 -79.5v-1082z" />
<glyph unicode="P" horiz-adv-x="909" d="M143 0v1638h410q61 0 115.5 -21.5t94.5 -58t62.5 -89t22.5 -113.5v-361q0 -61 -22.5 -114.5t-62.5 -93t-94.5 -63.5t-115.5 -24h-225v-700h-185zM328 885h225q49 0 80 30.5t31 79.5v361q0 47 -31 72.5t-80 25.5h-225v-569z" />
<glyph unicode="Q" horiz-adv-x="937" d="M113 274v1082q0 61 23.5 115.5t63.5 94.5t93 62.5t115 22.5h122q61 0 115.5 -22.5t94.5 -62.5t62.5 -94.5t22.5 -115.5v-1082q0 -57 -20.5 -108t-55 -90t-84 -63.5t-104.5 -30.5v-289h-184v289q-55 6 -104.5 30.5t-84 63.5t-55 90t-20.5 108zM297 274q0 -49 30.5 -79.5 t80.5 -30.5h122q49 0 80 30.5t31 79.5v1082q0 49 -30.5 79.5t-80.5 30.5h-122q-49 0 -80 -30.5t-31 -79.5v-1082z" />
<glyph unicode="R" horiz-adv-x="937" d="M143 0v1638h453q51 0 95 -19.5t78 -53t53.5 -77.5t19.5 -95v-295q0 -80 -44 -145.5t-114 -96.5q76 -29 124 -94.5t48 -151.5v-610h-184v610q0 63 -23.5 99t-64.5 55h-256v-764h-185zM328 948h258q41 18 55 53t14 93v299q0 29 -19.5 46t-47.5 17h-260v-508z" />
<glyph unicode="S" horiz-adv-x="888" d="M92 274v304h184v-304q0 -49 31 -79.5t80 -30.5h115q49 0 79.5 30.5t30.5 79.5v158q0 92 -22.5 155.5t-60 109.5t-91 81t-114.5 72q-109 66 -170.5 164t-61.5 229v113q0 61 23.5 115.5t63.5 94.5t93.5 62.5t114.5 22.5h115q61 0 115.5 -22.5t94.5 -62.5t62.5 -94.5 t22.5 -115.5h-185q0 49 -30.5 79.5t-79.5 30.5h-115q-49 0 -80 -30.5t-31 -79.5v-113q0 -57 18.5 -99t52.5 -76t80 -62.5t99 -61.5q59 -35 108.5 -82t85.5 -109.5t56.5 -141.5t20.5 -179v-158q0 -61 -22.5 -114.5t-62.5 -93t-94.5 -63t-115.5 -23.5h-115q-61 0 -114.5 23.5 t-93.5 63t-63.5 93t-23.5 114.5z" />
<glyph unicode="T" horiz-adv-x="757" d="M0 1454v184h758v-184h-287v-1454h-184v1454h-287z" />
<glyph unicode="U" horiz-adv-x="958" d="M123 274v1364h184v-1364q0 -49 31 -79.5t80 -30.5h123q49 0 79.5 30.5t30.5 79.5v1364h185v-1364q0 -61 -22.5 -114.5t-62.5 -93t-94.5 -63t-115.5 -23.5h-123q-61 0 -114.5 23.5t-93.5 63t-63.5 93t-23.5 114.5z" />
<glyph unicode="V" horiz-adv-x="935" d="M20 1638h189l240 -1448q0 -6 4 -12q4 -4 7 -9t9 -5h6q12 0 15.5 10t5.5 16l235 1448h184l-264 -1589q-4 -25 -29.5 -47t-58.5 -22h-182q-33 0 -58.5 21.5t-29.5 47.5z" />
<glyph unicode="W" horiz-adv-x="1552" d="M123 274v1364h184v-1364q0 -49 31 -79.5t80 -30.5h74q43 0 78.5 21.5t61 53t39 68.5t13.5 70v1261h184v-1261q0 -33 13.5 -70t39 -68.5t61.5 -53t79 -21.5h74q49 0 79.5 30.5t30.5 79.5v1364h185v-1364q0 -61 -23 -114.5t-62.5 -93t-94 -63t-115.5 -23.5h-74 q-104 0 -181 60t-104 155q-27 -94 -103.5 -154.5t-180.5 -60.5h-74q-61 0 -114.5 23.5t-93.5 63t-63.5 93t-23.5 114.5z" />
<glyph unicode="X" horiz-adv-x="901" d="M41 0l315 932l-237 706h186l146 -510l147 510h186l-241 -706l317 -932h-186l-223 735l-224 -735h-186z" />
<glyph unicode="Y" horiz-adv-x="935" d="M20 1638h189l240 -976q0 -6 4 -13q4 -4 7 -9t9 -5h6q12 0 15.5 10t5.5 17l235 976h184l-264 -1118q-6 -25 -30.5 -47t-57.5 -22v-451h-182v451q-33 0 -58.5 21.5t-29.5 47.5z" />
<glyph unicode="Z" horiz-adv-x="819" d="M31 0l514 1454h-514v184h757l-512 -1454h512v-184h-757z" />
<glyph unicode="[" horiz-adv-x="575" d="M123 -143v1925h452v-185h-268v-1556h268v-184h-452z" />
<glyph unicode="\" horiz-adv-x="612" d="M0 1638h182l430 -1638h-184z" />
<glyph unicode="]" horiz-adv-x="575" d="M0 41h268v1556h-268v185h453v-1925h-453v184z" />
<glyph unicode="^" horiz-adv-x="716" d="M63 1305l254 303h101l254 -303h-164l-137 159h-6l-138 -159h-164z" />
<glyph unicode="_" horiz-adv-x="798" d="M0 -29h799v-182h-799v182z" />
<glyph unicode="`" horiz-adv-x="673" d="M61 1567h179l206 -269h-178z" />
<glyph unicode="a" d="M61 176v182q0 78 15.5 127.5t42 82t64.5 52t81 35.5l285 86v154q0 33 -11.5 50.5t-28.5 25.5t-41 10t-48 2q-49 0 -89 -15.5t-40 -72.5v-41h-185v41q0 70 28 121t73 85t100 50t113 16q57 0 113.5 -16t100.5 -50t71.5 -85t27.5 -121v-895h-184v127q-51 -41 -105 -74 q-45 -29 -95 -51t-91 -22q-82 0 -139.5 57t-57.5 139zM246 258q0 -43 7 -67.5t19 -24.5q16 0 61.5 22.5t92.5 51.5q55 33 123 71v256l-242 -75q-43 -18 -52 -57.5t-9 -106.5v-70z" />
<glyph unicode="b" horiz-adv-x="907" d="M123 252v1315h184v-547q53 41 107 74q45 29 95 51t91 22q82 0 138.5 -57t56.5 -139v-719q0 -55 -21.5 -105.5t-58.5 -87t-86 -58t-107 -21.5h-127q-57 0 -106 21.5t-86 58t-58.5 87t-21.5 105.5zM309 252q0 -41 22.5 -64.5t63.5 -23.5h127q41 0 64.5 23.5t23.5 64.5 l2 637q0 43 -7 67.5t-19 24.5q-16 0 -61.5 -21.5t-92.5 -50.5q-55 -33 -123 -73v-584z" />
<glyph unicode="c" horiz-adv-x="825" d="M102 252v643q0 57 21.5 106.5t58.5 86t86 58t107 21.5h127q57 0 106 -21.5t86 -58t58.5 -86t21.5 -106.5v-154h-184v154q0 41 -23.5 64.5t-64.5 23.5h-127q-41 0 -64.5 -23.5t-23.5 -64.5v-643q0 -41 23.5 -64.5t64.5 -23.5h127q41 0 64.5 23.5t23.5 64.5v147h184v-147 q0 -55 -21.5 -105.5t-58.5 -87t-86 -58t-106 -21.5h-127q-57 0 -106.5 21.5t-86.5 58t-58.5 87t-21.5 105.5z" />
<glyph unicode="d" horiz-adv-x="907" d="M113 176v721q0 55 21.5 105.5t58 87t86 58t106.5 21.5h127q43 0 88 -16v412h184v-1565h-184v127q-53 -41 -106 -74q-45 -29 -95.5 -51t-91.5 -22q-82 0 -138 57t-56 139zM297 258q0 -43 7 -67.5t20 -24.5q16 0 61 22.5t92 51.5q55 33 123 71v584q0 41 -23.5 64.5 t-64.5 23.5l-127 2q-41 0 -64.5 -23.5t-23.5 -64.5v-639z" />
<glyph unicode="e" d="M102 252v643q0 57 21.5 106.5t58.5 86t86 58t107 21.5h127q57 0 106 -21.5t86 -58t58.5 -86t21.5 -106.5v-348h-487v-295q0 -41 23.5 -64.5t64.5 -23.5h127q41 0 64.5 23.5t23.5 64.5v147h184v-147q0 -57 -21.5 -106.5t-58.5 -86t-86 -58t-106 -21.5h-127 q-57 0 -106.5 21.5t-86.5 58t-58.5 86t-21.5 106.5zM287 731h303v164q0 41 -23.5 64.5t-64.5 23.5h-127q-41 0 -64.5 -23.5t-23.5 -64.5v-164z" />
<glyph unicode="f" horiz-adv-x="532" d="M10 973v182h123v139q0 55 21.5 105.5t58.5 87.5t86 58.5t107 21.5h126v-185h-122q-41 0 -66 -23.5t-25 -64.5v-139h177v-182h-177v-1018q0 -55 -21.5 -105.5t-58 -87t-87 -58t-109.5 -21.5v184q41 0 65.5 23.5t24.5 64.5v1018h-123z" />
<glyph unicode="g" horiz-adv-x="876" d="M102 289v608q0 55 21.5 105.5t58.5 87t86 58t107 21.5h127q57 0 106 -21.5t86 -58t58.5 -87t21.5 -105.5v-967q0 -57 -20.5 -106t-57.5 -85t-86 -56.5t-106 -20.5h-127q-57 0 -106.5 21.5t-86.5 58.5t-58.5 86t-21.5 106v46h185v-46q0 -41 23.5 -64.5t64.5 -23.5h127 q41 0 64.5 24t23.5 64v314q-53 -43 -107 -78q-45 -29 -95 -53.5t-91 -24.5q-82 0 -139.5 57.5t-57.5 139.5zM287 289q0 -12 12 -13q41 0 91 27t95 59q53 37 105 84v451q0 41 -23.5 64.5t-64.5 23.5h-127q-41 0 -64.5 -23.5t-23.5 -64.5v-608z" />
<glyph unicode="h" horiz-adv-x="907" d="M123 0v1567h184v-547q51 41 105 74q45 29 95 50t91 21q82 0 139.5 -57t57.5 -139v-969h-185v887q0 43 -7 67.5t-19 24.5q-16 0 -61.5 -21.5t-92.5 -50.5q-55 -33 -123 -73v-834h-184z" />
<glyph unicode="i" horiz-adv-x="563" d="M133 252v895h186v-895q0 -41 25 -64.5t66 -23.5h122v-184h-126q-57 0 -106.5 21.5t-86.5 58t-58.5 87t-21.5 105.5zM133 1350v217h184v-217h-184z" />
<glyph unicode="j" horiz-adv-x="534" d="M0 -135v-184h127q57 0 106.5 21.5t86 58t58 87t21.5 105.5v1194h-186v-1194q0 -41 -24.5 -64.5t-65.5 -23.5h-123zM213 1350v217h186v-217h-186z" />
<glyph unicode="k" horiz-adv-x="864" d="M123 0v1567h182v-858h51l262 438h205l-303 -520v-19l395 -608h-215l-344 526h-51v-526h-182z" />
<glyph unicode="l" horiz-adv-x="563" d="M133 252v1313h186v-1313q0 -41 25 -64.5t66 -23.5h122v-184h-126q-57 0 -106.5 21.5t-86.5 58t-58.5 87t-21.5 105.5z" />
<glyph unicode="m" horiz-adv-x="1392" d="M123 0v1147h184v-135q51 43 105 78q45 29 95 53t91 24q66 0 118 -45t70 -106l7 4q51 41 104 74q45 29 95 51t91 22t77 -15t62.5 -43t42 -63.5t15.5 -76.5v-969h-182v887q0 84 -29 84q-16 0 -61 -20.5t-93 -47.5q-55 -31 -122 -69v-834h-183v879q0 43 -7 67.5t-19 24.5 q-16 0 -61.5 -21.5t-92.5 -50.5q-55 -33 -123 -74v-825h-184z" />
<glyph unicode="n" horiz-adv-x="907" d="M123 0v1147h184v-127q51 41 105 74q45 29 95 51t91 22t77 -15t62.5 -43t42 -63.5t15.5 -76.5v-969h-185v887q0 43 -7 67.5t-19 24.5q-16 0 -61.5 -21.5t-92.5 -50.5q-55 -33 -123 -73v-834h-184z" />
<glyph unicode="o" horiz-adv-x="876" d="M102 252v643q0 57 21.5 106.5t58.5 86t86 58t107 21.5h127q57 0 106 -21.5t86 -58t58.5 -86t21.5 -106.5v-643q0 -55 -21.5 -105.5t-58.5 -87t-86 -58t-106 -21.5h-127q-57 0 -106.5 21.5t-86.5 58t-58.5 87t-21.5 105.5zM287 252q0 -41 23.5 -64.5t64.5 -23.5h127 q41 0 64.5 14.5t23.5 73.5v643q0 41 -23.5 64.5t-64.5 23.5h-127q-41 0 -64.5 -23.5t-23.5 -64.5v-643z" />
<glyph unicode="p" horiz-adv-x="897" d="M113 -315v1462h184v-125q51 41 104 74q45 29 95.5 50t91.5 21q82 0 139 -57t57 -139v-719q0 -55 -21.5 -105.5t-58 -87t-86 -58t-106.5 -21.5h-127q-45 0 -88 16v-311h-184zM297 252q0 -41 23.5 -64.5t64.5 -23.5h127q41 0 64.5 23.5t23.5 64.5v637q0 43 -7 67.5 t-20 24.5q-16 0 -61 -21.5t-92 -50.5q-55 -33 -123 -73v-584z" />
<glyph unicode="q" horiz-adv-x="886" d="M102 178v719q0 55 21.5 105.5t58.5 87t86 58t107 21.5h127q57 0 106 -21.5t86 -58t58.5 -87t21.5 -105.5v-1212h-184v444q-51 -41 -105 -74q-45 -29 -95 -51t-91 -22q-82 0 -139.5 57t-57.5 139zM287 178q0 -12 12 -12q41 0 91 26.5t95 59.5q53 37 105 84v561 q0 41 -23.5 64.5t-64.5 23.5h-127q-41 0 -64.5 -23.5t-23.5 -64.5v-719z" />
<glyph unicode="r" horiz-adv-x="825" d="M123 0v1147h184v-127q51 41 105 74q45 29 95 50t91 21q82 0 139.5 -57t57.5 -139v-205h-185v123q0 43 -7 67.5t-19 24.5q-16 0 -61.5 -21.5t-92.5 -50.5q-55 -33 -123 -73v-834h-184z" />
<glyph unicode="s" horiz-adv-x="835" d="M82 252v182h184v-182q0 -41 23.5 -64.5t64.5 -23.5h127q41 0 64.5 23.5t23.5 64.5v70q0 35 -33.5 72.5t-74.5 68.5q-49 37 -109 69q-76 47 -135 101q-51 45 -93 102.5t-42 118.5v41q0 57 21.5 106.5t58.5 86t86 58t106 21.5h127q57 0 106.5 -21.5t86.5 -58t58.5 -86 t21.5 -106.5v-41h-185v41q0 41 -23.5 64.5t-64.5 23.5h-127q-41 0 -64.5 -23.5t-23.5 -64.5v-41q0 -16 36 -50t79 -69q51 -39 113 -84q74 -49 131 -104q49 -47 89 -106.5t40 -118.5v-70q0 -55 -21.5 -105.5t-58.5 -87t-86 -58t-107 -21.5h-127q-57 0 -106 21.5t-86 58 t-58.5 87t-21.5 105.5z" />
<glyph unicode="t" horiz-adv-x="608" d="M0 965v182h164v295h186v-295h258v-182h-258v-713q0 -41 24.5 -64.5t65.5 -23.5h117l6 -184h-127q-57 0 -106 21.5t-86 58t-58.5 87t-21.5 105.5v713h-164z" />
<glyph unicode="u" horiz-adv-x="907" d="M113 176v971h184v-889q0 -43 7 -67.5t20 -24.5q16 0 61 22.5t92 51.5q55 33 123 71v836h184v-1147h-184v127q-51 -41 -104 -74q-45 -29 -95.5 -51t-91.5 -22q-82 0 -139 57t-57 139z" />
<glyph unicode="v" horiz-adv-x="788" d="M31 1145h188l154 -955q0 -6 4 -12q4 -4 7 -9t9 -5h6q12 0 15.5 10t5.5 16l153 955h185l-183 -1096q-4 -25 -29.5 -47t-58.5 -22h-182q-33 0 -58.5 21.5t-29.5 47.5z" />
<glyph unicode="w" horiz-adv-x="1425" d="M113 274v873h184v-873q0 -49 19.5 -79.5t68.5 -30.5h66q74 0 122 54t48 159v770h184v-770q0 -104 48 -158.5t122 -54.5h65q49 0 68.5 30.5t19.5 79.5v873h185v-873q0 -61 -19.5 -114.5t-55.5 -93t-86 -63t-112 -23.5h-65q-92 0 -164 53t-98 147q-27 -94 -98.5 -147 t-163.5 -53h-66q-61 0 -111.5 23.5t-86 63t-55 93t-19.5 114.5z" />
<glyph unicode="x" horiz-adv-x="776" d="M20 0l283 604l-235 543h184l143 -361l160 361h184l-252 -543l269 -604h-185l-176 420l-190 -420h-185z" />
<glyph unicode="y" horiz-adv-x="768" d="M20 1145h189l153 -955q0 -6 5 -12q4 -4 7 -9t9 -5h6q12 0 15.5 10t5.5 16l153 955h185l-244 -1464h-176l47 299h-80q-33 0 -58.5 21.5t-29.5 47.5z" />
<glyph unicode="z" horiz-adv-x="765" d="M51 0v184l473 787h-469v184h654v-184l-476 -789h482v-182h-664z" />
<glyph unicode="{" horiz-adv-x="509" d="M41 741v156q33 0 62.5 7t51 28.5t34 62.5t12.5 109v385q0 68 19.5 117t52 81.5t72.5 51t83 22.5v-184q-18 -4 -30.5 -19.5t-12.5 -68.5v-385q0 -76 -10 -127t-29.5 -82t-49.5 -44t-71 -15v-33q41 -2 72 -14.5t50.5 -43t28.5 -82t9 -128.5v-385q0 -57 12.5 -70.5 t30.5 -18.5v-184q-43 4 -83 22.5t-72.5 51.5t-52 82t-19.5 117v385q0 68 -12.5 108.5t-34 62t-51 28.5t-62.5 7z" />
<glyph unicode="|" horiz-adv-x="430" d="M123 -102v1843h184v-1843h-184z" />
<glyph unicode="}" horiz-adv-x="509" d="M82 61q18 4 30.5 17.5t12.5 71.5v385q0 78 9 129t28.5 81.5t50.5 43t72 14.5v33q-39 2 -70 15t-50.5 44t-29.5 82t-10 127v385q0 53 -12.5 68.5t-30.5 19.5v184q43 -4 83 -22.5t72.5 -51t52 -82t19.5 -116.5v-385q0 -68 12.5 -109t34 -62.5t51 -28.5t62.5 -7v-156 q-33 0 -62.5 -7t-51 -28.5t-34 -62.5t-12.5 -108v-385q0 -68 -19.5 -117t-52 -82t-72.5 -51.5t-83 -22.5v184z" />
<glyph unicode="~" horiz-adv-x="628" d="M49 1464q16 18 48 41t79 23q37 0 73 -11.5t69.5 -24.5t68.5 -24.5t70 -11.5q41 0 66.5 17.5t47.5 39.5l11 -155q-16 -18 -47 -42t-78 -24q-37 0 -73 11.5t-69.5 24.5t-68.5 24.5t-70 11.5q-41 0 -67.5 -16.5t-49.5 -38.5z" />
<glyph unicode="&#xa1;" horiz-adv-x="638" d="M225 -319v1208h185v-1208h-185zM225 1094v217h185v-217h-185z" />
<glyph unicode="&#xa2;" horiz-adv-x="825" d="M102 471v643q0 53 18.5 99.5t51.5 82t77 59t95 29.5v183h184v-183q53 -4 97.5 -27.5t78 -59t52 -83t18.5 -100.5v-153h-184v153q0 33 -16.5 55.5t-45.5 28.5v-813q29 8 45.5 29.5t16.5 56.5v147h184v-147q0 -53 -18.5 -100t-52 -84t-77.5 -59.5t-98 -28.5v-199h-184v201 q-51 6 -95 28.5t-77 59.5t-51.5 84t-18.5 98zM287 471q0 -68 57 -84v811q-57 -18 -57 -84v-643z" />
<glyph unicode="&#xa3;" horiz-adv-x="1003" d="M31 0v184h286q-49 25 -78.5 71t-29.5 105v379h-178v185h178v370q0 61 23.5 115.5t63.5 94.5t93 62.5t115 22.5h114q61 0 115.5 -22.5t94.5 -62.5t62.5 -94t22.5 -116v-196h-184v196q0 49 -30.5 80t-80.5 31h-114q-49 0 -80 -31t-31 -80v-370h180v-185h-180v-379 q0 -29 16.5 -55t40 -49t52 -41t53.5 -31h367v-184h-891z" />
<glyph unicode="&#xa4;" horiz-adv-x="999" d="M72 635v143h112v74h-112v143h112v299q0 61 23.5 115.5t63.5 94.5t93.5 62.5t114.5 22.5h123q61 0 115.5 -22.5t94.5 -62.5t62.5 -94t22.5 -116v-258h-184v258q0 49 -31 80t-80 31h-123q-49 0 -79.5 -31t-30.5 -80v-299h268v-143h-268v-74h268v-143h-268v-361 q0 -49 30.5 -79.5t79.5 -30.5h123q41 0 62.5 8t31 22.5t11.5 35t2 44.5v324h188v-324q0 -61 -22.5 -114.5t-62.5 -93t-94 -63t-116 -23.5h-123q-61 0 -114.5 23.5t-93.5 63t-63.5 93t-23.5 114.5v361h-112z" />
<glyph unicode="&#xa5;" horiz-adv-x="935" d="M20 1567h189l240 -791q0 -6 4 -12q4 -4 7 -9t9 -5h6q12 0 15.5 10t5.5 16l235 793h184l-264 -934q-4 -25 -29.5 -47.5t-58.5 -22.5v-63h236v-144h-236v-73h236v-144h-236v-141h-182v141h-248v144h248v73h-248v144h248v63q-33 0 -58.5 21.5t-29.5 48.5z" />
<glyph unicode="&#xa6;" horiz-adv-x="409" d="M123 -102v798h164v-798h-164zM123 942v799h164v-799h-164z" />
<glyph unicode="&#xa7;" horiz-adv-x="835" d="M82 252v182h184v-182q0 -41 23.5 -64.5t64.5 -23.5h127q41 0 64.5 23.5t23.5 64.5v70q0 35 -33.5 72.5t-74.5 68.5q-49 37 -109 69q-76 47 -135 101q-51 45 -93 102.5t-42 118.5v41q0 82 45 149q-20 29 -32.5 60.5t-12.5 64.5v41q0 57 21.5 106.5t58.5 86.5t86 58.5 t106 21.5h127q57 0 106.5 -21.5t86.5 -58.5t58.5 -86t21.5 -107v-41h-185v41q0 41 -23.5 64.5t-64.5 23.5h-127q-41 0 -64.5 -23.5t-23.5 -64.5v-41q0 -16 36 -50t79 -68q51 -39 113 -84q74 -49 131 -105q49 -47 89 -106.5t40 -118.5v-70q0 -37 -10.5 -71.5t-26.5 -63.5 q37 -59 37 -110v-70q0 -55 -21.5 -105.5t-58.5 -87t-86 -58t-107 -21.5h-127q-57 0 -106 21.5t-86 58t-58.5 87t-21.5 105.5zM266 854q0 -16 36 -50t79 -69q51 -39 113 -84q10 -8 22 -16q10 -8 23.5 -17.5t29.5 -23.5v43q0 35 -33.5 73t-74.5 68q-49 37 -109 70 q-10 6 -24 14q-25 16 -62 43v-10v-41z" />
<glyph unicode="&#xa8;" horiz-adv-x="573" d="M76 1352q0 41 27.5 69.5t66.5 28.5q41 0 69.5 -28.5t28.5 -69.5q0 -39 -28.5 -67t-69.5 -28q-39 0 -66.5 28t-27.5 67zM311 1352q0 41 28 69.5t69 28.5q39 0 66.5 -28.5t27.5 -69.5q0 -39 -27.5 -67t-66.5 -28q-41 0 -69 28t-28 67z" />
<glyph unicode="&#xa9;" horiz-adv-x="1163" d="M123 307v529q0 68 30.5 128t84 104t126 69.5t154.5 25.5h127q84 0 155.5 -25.5t125 -69.5t84 -104.5t30.5 -127.5v-529q0 -68 -30.5 -128t-84 -104t-125 -69.5t-155.5 -25.5h-127q-82 0 -154.5 25.5t-126 69.5t-84 104.5t-30.5 127.5zM266 307q0 -74 66.5 -129t185.5 -55 h127q119 0 185.5 55t66.5 129v529q0 45 -20.5 78.5t-54.5 57t-80 36t-97 12.5h-127q-119 0 -185.5 -55.5t-66.5 -128.5v-529zM307 307q0 -61 59.5 -102t151.5 -41h127q92 0 151.5 41t59.5 102v111h-164v-49q0 -29 -18.5 -45.5t-46.5 -16.5h-88q-29 0 -48.5 16.5t-19.5 45.5 v405q0 29 19.5 45.5t48.5 16.5h86q29 0 48 -16.5t19 -45.5v-53h164v115q0 61 -59.5 102t-151.5 41h-127q-92 0 -151.5 -41t-59.5 -102v-529z" />
<glyph unicode="&#xaa;" horiz-adv-x="620" d="M72 645v141h477v-141h-477zM92 991v121q0 41 9.5 66.5t24.5 42t36.5 28t48.5 21.5l195 49v102q0 27 -20.5 34t-61.5 7t-61.5 -7t-20.5 -34v-24h-123v24q0 43 16.5 74t44 50.5t65.5 29.5t79 10q84 0 144 -40t60 -124v-536h-122v61q-39 -20 -76 -37q-31 -14 -64 -25.5 t-55 -11.5q-49 0 -84 35t-35 84zM215 1032q0 -8 3 -18t26 -10q10 0 36.5 11t55.5 25q33 16 70 37v117l-164 -41q-18 -6 -22.5 -18.5t-4.5 -22.5v-80z" />
<glyph unicode="&#xab;" horiz-adv-x="1114" d="M61 489l412 302l150 -70l-324 -232l324 -231l-150 -70zM451 489l411 302l150 -70l-324 -232l324 -231l-150 -70z" />
<glyph unicode="&#xac;" horiz-adv-x="942" d="M82 588v182h778v-412h-182v230h-596z" />
<glyph unicode="&#xad;" horiz-adv-x="655" d="M82 629v182h491v-182h-491z" />
<glyph unicode="&#xae;" horiz-adv-x="1003" d="M139 850v475q0 61 23.5 115.5t64.5 94.5t96.5 63.5t118.5 23.5h115q63 0 118.5 -23.5t96.5 -63.5t64.5 -94.5t23.5 -115.5v-475q0 -61 -23.5 -115.5t-64.5 -94.5t-96 -63.5t-119 -23.5h-115q-63 0 -118.5 23.5t-96.5 63.5t-64.5 94t-23.5 116zM283 850q0 -39 16 -67.5 t39.5 -48t51.5 -29t52 -9.5h115q25 0 52.5 9.5t51 29t40 48t16.5 67.5v475q0 39 -16.5 67.5t-40 48t-51 29t-52.5 9.5h-115q-25 0 -52.5 -9.5t-51 -29t-39.5 -48t-16 -67.5v-475zM330 770v655h239q41 0 76 -28.5t35 -69.5v-119q0 -31 -17.5 -57.5t-46.5 -38.5 q29 -10 48.5 -36.5t19.5 -61.5v-244h-133v244q0 12 -15.5 19t-21.5 7h-51v-270h-133zM463 1184h51q16 0 23.5 7t7.5 17v58q0 10 -7.5 18t-23.5 8h-51v-108z" />
<glyph unicode="&#xaf;" horiz-adv-x="614" d="M82 1325v141h450v-141h-450z" />
<glyph unicode="&#xb0;" horiz-adv-x="659" d="M82 1266v49q0 47 18.5 89t50 73.5t73.5 50t89 18.5h33q47 0 89 -18.5t74 -50t50.5 -73.5t18.5 -89v-49q0 -47 -18.5 -89t-50.5 -74t-74 -50.5t-89 -18.5h-33q-47 0 -89 18.5t-73.5 50.5t-50 74t-18.5 89zM225 1266q0 -37 25.5 -62.5t62.5 -25.5h33q37 0 62.5 25.5 t25.5 62.5v49q0 37 -25.5 62.5t-62.5 25.5h-33q-37 0 -62.5 -25.5t-25.5 -62.5v-49z" />
<glyph unicode="&#xb1;" horiz-adv-x="880" d="M82 219v182h717v-182h-717zM82 743v201h256v234h203v-234h258v-201h-258v-282h-203v282h-256z" />
<glyph unicode="&#xb2;" horiz-adv-x="616" d="M123 721v119q0 57 8 96t22.5 67.5t37 54t49.5 54.5q59 61 86.5 123.5t27.5 128.5v43q0 18 -9 25.5t-21 7.5h-19q-33 0 -33 -51v-25h-139v25q0 39 13.5 73.5t37 60t54 41t67.5 15.5h19q35 0 66.5 -13.5t54 -37t36 -54t13.5 -67.5v-43q0 -111 -43 -190.5t-105 -149.5 q-43 -47 -61.5 -78t-20.5 -86h230v-139h-371z" />
<glyph unicode="&#xb3;" horiz-adv-x="636" d="M115 1403v45q0 53 45 91t98 38h104q53 0 98.5 -38t45.5 -91v-127q0 -41 -19.5 -76t-54.5 -51q41 -16 61.5 -51t20.5 -80v-205q0 -53 -45 -91t-98 -38h-105q-53 0 -98 38t-45 91v186h123v-155q0 -8 9 -22.5t32 -14.5h63q23 0 32 14.5t9 22.5v174q0 23 -10 36t-25.5 21 t-34 10.5t-32.5 2.5h-86v122h86q25 0 47 9q18 6 32.5 19t14.5 38v96q0 8 -9 22.5t-32 14.5h-63q-23 0 -32 -14.5t-9 -22.5v-14h-123z" />
<glyph unicode="&#xb4;" horiz-adv-x="673" d="M266 1298l207 269h178l-207 -269h-178z" />
<glyph unicode="&#xb5;" horiz-adv-x="1421" d="M123 0l63 1638h367l158 -1187l161 1187h365l61 -1638h-184l-59 1454h-21l-231 -1434h-185l-229 1434h-20l-62 -1454h-184z" />
<glyph unicode="&#xb6;" horiz-adv-x="1146" d="M82 723v643q0 57 21.5 106.5t58.5 86t86 58t106 21.5h639v-1945h-184v1763h-143v-1763h-185v758h-127q-57 0 -106 21.5t-86 58t-58.5 87t-21.5 105.5zM266 723q0 -41 23.5 -64.5t64.5 -23.5h127v821h-127q-41 0 -64.5 -24.5t-23.5 -65.5v-643z" />
<glyph unicode="&#xb7;" horiz-adv-x="407" d="M102 594q0 41 30 71.5t71 30.5t71.5 -30.5t30.5 -71.5t-30.5 -70.5t-71.5 -29.5t-71 29.5t-30 70.5z" />
<glyph unicode="&#xb8;" horiz-adv-x="862" d="M281 -465l71 113q35 -16 54.5 -23.5t42.5 -7.5q53 0 83.5 26.5t30.5 67.5q0 35 -24.5 64.5t-67.5 29.5h-109l35 250h148l-25 -110q82 -18 134.5 -85t52.5 -149q0 -49 -18.5 -92t-52.5 -75.5t-82 -51t-105 -18.5q-37 0 -76 13t-92 48z" />
<glyph unicode="&#xb9;" horiz-adv-x="530" d="M154 1444v123h223v-830h-144v707h-79z" />
<glyph unicode="&#xba;" horiz-adv-x="663" d="M92 645v141h479v-141h-479zM113 1036v385q0 70 47 117t116 47h109q68 0 116 -47t48 -117v-385q0 -68 -48 -116t-116 -48h-109q-70 0 -116.5 48.5t-46.5 115.5zM256 1047q0 -14 12.5 -22.5t18.5 -8.5h88q6 0 18.5 8t12.5 23v364q0 14 -11.5 22.5t-17.5 8.5h-90 q-6 0 -18.5 -9.5t-12.5 -21.5v-364z" />
<glyph unicode="&#xbb;" horiz-adv-x="1114" d="M102 258l324 231l-324 232l150 70l412 -302l-412 -301zM492 258l323 231l-323 232l149 70l412 -302l-412 -301z" />
<glyph unicode="&#xbc;" horiz-adv-x="1251" d="M154 1444v123h223v-830h-144v707h-79zM287 0l516 1634h143l-516 -1634h-143zM662 195h323v-195h123v195h41v122h-41v519h-221zM838 317l127 400h20v-400h-147z" />
<glyph unicode="&#xbd;" horiz-adv-x="1228" d="M154 1444v123h223v-830h-144v707h-79zM287 0l516 1634h143l-516 -1634h-143zM735 0h371v139h-229q2 55 20 86t61 78q61 70 104.5 149.5t43.5 190.5v43q0 37 -13.5 67.5t-36 54t-54 37t-66.5 13.5h-18q-37 0 -68 -15.5t-54.5 -41t-37 -60t-13.5 -73.5v-25h140v25 q0 51 33 51h18q12 0 21.5 -7t9.5 -26v-43q0 -66 -28 -128t-87 -124q-27 -29 -49.5 -54.5t-36.5 -54t-22.5 -67.5t-8.5 -96v-119z" />
<glyph unicode="&#xbe;" horiz-adv-x="1312" d="M115 1403v45q0 53 45 91t98 38h104q53 0 98.5 -38t45.5 -91v-127q0 -41 -19.5 -76t-54.5 -51q41 -16 61.5 -51t20.5 -80v-205q0 -53 -45 -91t-98 -38h-105q-53 0 -98 38t-45 91v186h123v-155q0 -8 9 -22.5t32 -14.5h63q23 0 32 14.5t9 22.5v174q0 23 -10 36t-25.5 21 t-34 10.5t-32.5 2.5h-86v122h86q25 0 47 9q18 6 32.5 19t14.5 38v96q0 8 -9 22.5t-32 14.5h-63q-23 0 -32 -14.5t-9 -22.5v-14h-123zM328 0l516 1634h143l-516 -1634h-143zM702 195h324v-195h123v195h41v122h-41v519h-221zM879 317l127 400h20v-400h-147z" />
<glyph unicode="&#xbf;" horiz-adv-x="876" d="M82 -68q0 -57 21.5 -106t58.5 -86t86 -58.5t106 -21.5h168q57 0 106.5 21.5t86.5 58.5t58.5 86t21.5 106v213h-185v-213q0 -41 -23.5 -64.5t-64.5 -23.5h-168q-41 0 -64.5 23.5t-23.5 64.5v232q0 35 15.5 64.5t37.5 29.5q129 0 204 71.5t75 207.5v374h-184v-374 q0 -63 -30 -79t-65 -16q-61 0 -106 -28.5t-73.5 -70.5t-43 -90t-14.5 -89v-232zM414 1094v217h184v-217h-184z" />
<glyph unicode="&#xc0;" horiz-adv-x="933" d="M20 0l265 1581q4 25 29.5 47.5t58.5 22.5h182q33 0 58.5 -21.5t29.5 -48.5l270 -1581h-184l-74 397h-379l-71 -397h-185zM184 1976h178l207 -268h-178zM303 582h326l-142 858q0 8 -4 14q-8 12 -16 12h-6q-12 0 -15.5 -10t-5.5 -16z" />
<glyph unicode="&#xc1;" horiz-adv-x="933" d="M20 0h185l71 397h379l74 -397h184l-270 1581q-4 27 -29.5 48.5t-58.5 21.5h-182q-33 0 -58.5 -22.5t-29.5 -47.5zM303 582l137 858q2 6 5.5 16t15.5 10h6q8 0 16 -12q4 -6 4 -14l142 -858h-326zM360 1708l207 268h178l-206 -268h-179z" />
<glyph unicode="&#xc2;" horiz-adv-x="933" d="M20 0h185l71 397h379l74 -397h184l-270 1581q-4 27 -29.5 48.5t-58.5 21.5h-182q-33 0 -58.5 -22.5t-29.5 -47.5zM160 1714l254 303h100l254 -303h-164l-137 160h-6l-137 -160h-164zM303 582l137 858q2 6 5.5 16t15.5 10h6q8 0 16 -12q4 -6 4 -14l142 -858h-326z" />
<glyph unicode="&#xc3;" horiz-adv-x="933" d="M20 0l265 1581q4 25 29.5 47.5t58.5 22.5h182q33 0 58.5 -21.5t29.5 -48.5l270 -1581h-184l-74 397h-379l-71 -397h-185zM195 1874q16 18 47.5 40.5t79.5 22.5q37 0 72.5 -11t69.5 -24.5t68.5 -24.5t69.5 -11q41 0 66.5 17.5t48.5 39.5l10 -156q-16 -18 -47 -41.5 t-78 -23.5q-37 0 -72.5 11t-69.5 24.5t-69 25t-69 11.5q-41 0 -68 -16.5t-49 -39.5zM303 582h326l-142 858q0 8 -4 14q-8 12 -16 12h-6q-12 0 -15.5 -10t-5.5 -16z" />
<glyph unicode="&#xc4;" horiz-adv-x="933" d="M20 0l265 1581q4 25 29.5 47.5t58.5 22.5h182q33 0 58.5 -21.5t29.5 -48.5l270 -1581h-184l-74 397h-379l-71 -397h-185zM244 1761q0 41 27.5 70t66.5 29q41 0 69.5 -29t28.5 -70q0 -39 -28.5 -66.5t-69.5 -27.5q-39 0 -66.5 27.5t-27.5 66.5zM303 582h326l-142 858 q0 8 -4 14q-8 12 -16 12h-6q-12 0 -15.5 -10t-5.5 -16zM479 1761q0 41 28 70t68 29q39 0 67 -29t28 -70q0 -39 -28 -66.5t-67 -27.5q-41 0 -68.5 27.5t-27.5 66.5z" />
<glyph unicode="&#xc5;" horiz-adv-x="933" d="M20 0h185l71 397h379l74 -397h184l-270 1581q-4 27 -29.5 48.5t-58.5 21.5h-182q-33 0 -58.5 -22.5t-29.5 -47.5zM223 1884q0 49 18.5 92t50.5 75t75 50.5t92 18.5t92 -18.5t74.5 -50.5t50 -75t18.5 -92t-18.5 -92t-50 -74.5t-74.5 -50t-92 -18.5t-92 18.5t-75 50 t-50.5 74.5t-18.5 92zM303 582l137 858q2 6 5.5 16t15.5 10h6q8 0 16 -12q4 -6 4 -14l142 -858h-326zM365 1884q0 -39 27.5 -66.5t66.5 -27.5t66.5 27.5t27.5 66.5t-27.5 66.5t-66.5 27.5t-66.5 -27.5t-27.5 -66.5z" />
<glyph unicode="&#xc6;" horiz-adv-x="1288" d="M20 0l265 1581q4 25 29.5 47.5t58.5 22.5h874v-197h-405v-459h350v-184h-350v-627h405v-184h-590v397h-381l-71 -397h-185zM303 582h354v884h-196q-12 0 -15.5 -10t-5.5 -16z" />
<glyph unicode="&#xc7;" horiz-adv-x="927" d="M113 274v1082q0 61 23.5 115.5t63.5 94.5t93 62.5t115 22.5h122q61 0 115.5 -22.5t94.5 -62.5t62.5 -94.5t22.5 -115.5v-258h-184v258q0 49 -30.5 79.5t-80.5 30.5h-122q-49 0 -80 -30.5t-31 -79.5v-1082q0 -49 30.5 -79.5t80.5 -30.5h122q41 0 62.5 8t31 22.5t11.5 35 t2 44.5v324h188v-324q0 -61 -22.5 -114.5t-62.5 -93t-94 -63t-116 -23.5h-22l-8 -35q82 -18 134 -85t52 -149q0 -49 -18.5 -92t-52 -75.5t-82 -51t-105.5 -18.5q-37 0 -76 13t-92 48l72 113q35 -16 54.5 -23.5t41.5 -7.5q53 0 84 26.5t31 67.5q0 35 -24.5 64.5t-67.5 29.5 h-109l25 179q-55 6 -101.5 31.5t-80 64.5t-53 89t-19.5 105z" />
<glyph unicode="&#xc8;" horiz-adv-x="780" d="M143 1976h179l206 -268h-178zM150 0v1638h589v-184h-405v-459h350v-184h-350v-627h405v-184h-589z" />
<glyph unicode="&#xc9;" horiz-adv-x="774" d="M143 0h590v184h-405v627h350v184h-350v459h405v184h-590v-1638zM268 1708l207 268h199l-207 -268h-199z" />
<glyph unicode="&#xca;" horiz-adv-x="813" d="M143 1714l254 303h101l254 -303h-164l-137 160h-7l-137 -160h-164zM182 0h590v184h-405v627h350v184h-350v459h405v184h-590v-1638z" />
<glyph unicode="&#xcb;" horiz-adv-x="774" d="M143 0v1638h590v-184h-405v-459h350v-184h-350v-627h405v-184h-590zM209 1767q0 41 27.5 70t66.5 29q41 0 69.5 -29t28.5 -70q0 -39 -28.5 -66.5t-69.5 -27.5q-39 0 -66.5 28t-27.5 66zM444 1767q0 41 28 70t69 29q39 0 66.5 -29t27.5 -70q0 -39 -27.5 -66.5t-66.5 -27.5 q-41 0 -69 28t-28 66z" />
<glyph unicode="&#xcc;" horiz-adv-x="507" d="M0 1976h199l207 -268h-199zM195 0v1638h184v-1638h-184z" />
<glyph unicode="&#xcd;" horiz-adv-x="489" d="M92 0v1638h184v-1638h-184zM94 1708l207 268h178l-207 -268h-178z" />
<glyph unicode="&#xce;" horiz-adv-x="491" d="M-57 1714l254 303h100l254 -303h-164l-137 160h-6l-138 -160h-163zM154 0v1638h184v-1638h-184z" />
<glyph unicode="&#xcf;" horiz-adv-x="458" d="M16 1776q0 41 28 69.5t67 28.5q41 0 69.5 -28.5t28.5 -69.5q0 -39 -28.5 -67t-69.5 -28q-39 0 -67 28t-28 67zM139 0v1638h185v-1638h-185zM252 1776q0 41 27.5 69.5t68.5 28.5q39 0 66.5 -28.5t27.5 -69.5q0 -39 -27.5 -67t-66.5 -28q-41 0 -68.5 28t-27.5 67z" />
<glyph unicode="&#xd0;" horiz-adv-x="948" d="M102 795v182h103v661h336q61 0 115.5 -21.5t94.5 -58t62.5 -89t22.5 -113.5v-1061q0 -61 -22.5 -114.5t-62.5 -93.5t-94.5 -63.5t-115.5 -23.5h-336v795h-103zM389 184h152q49 0 79.5 31t30.5 80v1061q0 47 -30.5 72.5t-79.5 25.5h-152v-477h115v-182h-115v-611z" />
<glyph unicode="&#xd1;" horiz-adv-x="1095" d="M143 0v1638h328l287 -1454h10v1454h184v-1638h-323l-291 1454h-10v-1454h-185zM303 1874q16 18 48 40.5t79 22.5q37 0 73 -11t69.5 -24.5t68.5 -24.5t70 -11q41 0 66.5 17.5t47.5 39.5l11 -156q-16 -18 -47 -41.5t-78 -23.5q-37 0 -73 11t-69.5 24.5t-68.5 25t-70 11.5 q-41 0 -67.5 -16.5t-49.5 -39.5z" />
<glyph unicode="&#xd2;" horiz-adv-x="937" d="M113 274v1082q0 61 23.5 115.5t63.5 94.5t93 62.5t115 22.5h122q61 0 115.5 -22.5t94.5 -62.5t62.5 -94.5t22.5 -115.5v-1082q0 -61 -22.5 -114.5t-62.5 -93t-94 -63t-116 -23.5h-122q-61 0 -114.5 23.5t-93.5 63t-63.5 93t-23.5 114.5zM188 1976h179l206 -268h-178z M297 274q0 -49 30.5 -79.5t80.5 -30.5h122q49 0 80 30.5t31 79.5v1082q0 49 -30.5 79.5t-80.5 30.5h-122q-49 0 -80 -30.5t-31 -79.5v-1082z" />
<glyph unicode="&#xd3;" horiz-adv-x="937" d="M113 274v1082q0 61 23.5 115.5t63.5 94.5t93 62.5t115 22.5h122q61 0 115.5 -22.5t94.5 -62.5t62.5 -94.5t22.5 -115.5v-1082q0 -61 -22.5 -114.5t-62.5 -93t-94 -63t-116 -23.5h-122q-61 0 -114.5 23.5t-93.5 63t-63.5 93t-23.5 114.5zM297 274q0 -49 30.5 -79.5 t80.5 -30.5h122q49 0 80 30.5t31 79.5v1082q0 49 -30.5 79.5t-80.5 30.5h-122q-49 0 -80 -30.5t-31 -79.5v-1082zM381 1708l207 268h178l-207 -268h-178z" />
<glyph unicode="&#xd4;" horiz-adv-x="937" d="M113 274v1082q0 61 23.5 115.5t63.5 94.5t93 62.5t115 22.5h122q61 0 115.5 -22.5t94.5 -62.5t62.5 -94.5t22.5 -115.5v-1082q0 -61 -22.5 -114.5t-62.5 -93t-94 -63t-116 -23.5h-122q-61 0 -114.5 23.5t-93.5 63t-63.5 93t-23.5 114.5zM160 1714l254 303h100l254 -303 h-164l-137 160h-6l-137 -160h-164zM297 274q0 -49 30.5 -79.5t80.5 -30.5h122q49 0 80 30.5t31 79.5v1082q0 49 -30.5 79.5t-80.5 30.5h-122q-49 0 -80 -30.5t-31 -79.5v-1082z" />
<glyph unicode="&#xd5;" horiz-adv-x="937" d="M113 274v1082q0 61 23.5 115.5t63.5 94.5t93 62.5t115 22.5h122q61 0 115.5 -22.5t94.5 -62.5t62.5 -94.5t22.5 -115.5v-1082q0 -61 -22.5 -114.5t-62.5 -93t-94 -63t-116 -23.5h-122q-61 0 -114.5 23.5t-93.5 63t-63.5 93t-23.5 114.5zM201 1874q16 18 48 40.5t79 22.5 q37 0 72.5 -11t69.5 -24.5t68.5 -24.5t69.5 -11q41 0 66.5 17.5t48.5 39.5l10 -156q-16 -18 -47 -41.5t-78 -23.5q-37 0 -72.5 11t-69.5 24.5t-69 25t-69 11.5q-41 0 -68 -16.5t-49 -39.5zM297 274q0 -49 30.5 -79.5t80.5 -30.5h122q49 0 80 30.5t31 79.5v1082 q0 49 -30.5 79.5t-80.5 30.5h-122q-49 0 -80 -30.5t-31 -79.5v-1082z" />
<glyph unicode="&#xd6;" horiz-adv-x="937" d="M113 274v1082q0 61 23.5 115.5t63.5 94.5t93 62.5t115 22.5h122q61 0 115.5 -22.5t94.5 -62.5t62.5 -94.5t22.5 -115.5v-1082q0 -61 -22.5 -114.5t-62.5 -93t-94 -63t-116 -23.5h-122q-61 0 -114.5 23.5t-93.5 63t-63.5 93t-23.5 114.5zM250 1761q0 41 27.5 70t66.5 29 q41 0 69.5 -29t28.5 -70q0 -39 -28.5 -66.5t-69.5 -27.5q-39 0 -66.5 27.5t-27.5 66.5zM297 274q0 -49 30.5 -79.5t80.5 -30.5h122q49 0 80 30.5t31 79.5v1082q0 49 -30.5 79.5t-80.5 30.5h-122q-49 0 -80 -30.5t-31 -79.5v-1082zM485 1761q0 41 28 70t69 29q39 0 66.5 -29 t27.5 -70q0 -39 -27.5 -66.5t-66.5 -27.5q-41 0 -69 27.5t-28 66.5z" />
<glyph unicode="&#xd7;" horiz-adv-x="1015" d="M180 508l207 205l-188 188l129 129l188 -188l189 188l129 -129l-189 -188l207 -205l-129 -129l-207 207l-207 -207z" />
<glyph unicode="&#xd8;" horiz-adv-x="962" d="M113 -123l69 219q-29 37 -44 82t-15 96v1082q0 61 23.5 115.5t63.5 94.5t93 62.5t115 22.5h123q63 0 123 -27l43 137h143l-74 -229q29 -37 44.5 -82t15.5 -94v-1082q0 -61 -22.5 -114.5t-62.5 -93t-94.5 -63t-115.5 -23.5h-123q-33 0 -63.5 7t-59.5 17l-39 -127h-143z M307 494l299 952q-30 20 -65 20h-123q-49 0 -80 -30.5t-31 -79.5v-862zM352 182q25 -18 66 -18h123q49 0 79.5 30.5t30.5 79.5v856z" />
<glyph unicode="&#xd9;" horiz-adv-x="958" d="M123 274v1364h184v-1364q0 -49 31 -79.5t80 -30.5h123q49 0 79.5 30.5t30.5 79.5v1364h185v-1364q0 -61 -22.5 -114.5t-62.5 -93t-94.5 -63t-115.5 -23.5h-123q-61 0 -114.5 23.5t-93.5 63t-63.5 93t-23.5 114.5zM199 1976h178l207 -268h-178z" />
<glyph unicode="&#xda;" horiz-adv-x="958" d="M123 274v1364h184v-1364q0 -49 31 -79.5t80 -30.5h123q49 0 79.5 30.5t30.5 79.5v1364h185v-1364q0 -61 -22.5 -114.5t-62.5 -93t-94.5 -63t-115.5 -23.5h-123q-61 0 -114.5 23.5t-93.5 63t-63.5 93t-23.5 114.5zM360 1708l207 268h178l-206 -268h-179z" />
<glyph unicode="&#xdb;" horiz-adv-x="958" d="M123 274v1364h184v-1364q0 -49 31 -79.5t80 -30.5h123q49 0 79.5 30.5t30.5 79.5v1364h185v-1364q0 -61 -22.5 -114.5t-62.5 -93t-94.5 -63t-115.5 -23.5h-123q-61 0 -114.5 23.5t-93.5 63t-63.5 93t-23.5 114.5zM180 1714l254 303h101l253 -303h-163l-138 160h-6 l-137 -160h-164z" />
<glyph unicode="&#xdc;" horiz-adv-x="958" d="M123 274v1364h184v-1364q0 -49 31 -79.5t80 -30.5h123q49 0 79.5 30.5t30.5 79.5v1364h185v-1364q0 -61 -22.5 -114.5t-62.5 -93t-94.5 -63t-115.5 -23.5h-123q-61 0 -114.5 23.5t-93.5 63t-63.5 93t-23.5 114.5zM281 1761q0 41 27.5 70t66.5 29q41 0 69.5 -29t28.5 -70 q0 -39 -28.5 -66.5t-69.5 -27.5q-39 0 -66.5 27.5t-27.5 66.5zM516 1761q0 41 27.5 70t68.5 29q39 0 67 -29t28 -70q0 -39 -28 -66.5t-67 -27.5q-41 0 -68.5 27.5t-27.5 66.5z" />
<glyph unicode="&#xdd;" horiz-adv-x="935" d="M20 1638l273 -1118q4 -27 29.5 -48t58.5 -21v-451h182v451q33 0 57.5 22.5t30.5 46.5l264 1118h-184l-235 -976l-5.5 -16.5t-15.5 -10.5h-6q-6 0 -9 5t-7 9q-4 6 -4 13l-240 976h-189zM354 1708l207 268h178l-207 -268h-178z" />
<glyph unicode="&#xde;" horiz-adv-x="909" d="M143 0v1620h185v-309h225q61 0 115.5 -21.5t94.5 -58.5t62.5 -89t22.5 -114v-360q0 -61 -22.5 -114.5t-62.5 -93.5t-94.5 -63.5t-115.5 -23.5h-225v-373h-185zM328 557h225q49 0 80 30.5t31 80.5v360q0 47 -31 72.5t-80 25.5h-225v-569z" />
<glyph unicode="&#xdf;" horiz-adv-x="1005" d="M10 -135h123q41 0 65.5 23.5t24.5 64.5v1384q0 123 71 185.5t193 62.5h115q123 0 200 -62.5t77 -185.5v-237q0 -80 -44 -145.5t-114 -96.5q76 -29 124 -97.5t48 -148.5v-387q0 -123 -83 -184t-206 -61h-158v184h156q49 0 78 13t29 48v387q0 25 -14.5 51.5t-35 50t-43 38 t-38.5 14.5h-132v184h132q16 0 36.5 14.5t38 36t29.5 48t12 51.5v237q0 35 -21.5 49.5t-70.5 14.5h-115q-49 0 -64 -14.5t-15 -49.5l2 -1384q0 -55 -21.5 -105.5t-58.5 -87t-86 -58t-107 -21.5h-127v184z" />
<glyph unicode="&#xe0;" d="M61 176v182q0 78 15.5 127.5t42 82t64.5 52t81 35.5l285 86v154q0 33 -11.5 50.5t-28.5 25.5t-41 10t-48 2q-49 0 -89 -15.5t-40 -72.5v-41h-185v41q0 70 28 121t73 85t100 50t113 16q57 0 113.5 -16t100.5 -50t71.5 -85t27.5 -121v-895h-184v127q-51 -41 -105 -74 q-45 -29 -95 -51t-91 -22q-82 0 -139.5 57t-57.5 139zM186 1567h179l206 -269h-178zM246 258q0 -43 7 -67.5t19 -24.5q16 0 61.5 22.5t92.5 51.5q55 33 123 71v256l-242 -75q-43 -18 -52 -57.5t-9 -106.5v-70z" />
<glyph unicode="&#xe1;" d="M61 176v182q0 78 15.5 127.5t42 82t64.5 52t81 35.5l285 86v154q0 33 -11.5 50.5t-28.5 25.5t-41 10t-48 2q-49 0 -89 -15.5t-40 -72.5v-41h-185v41q0 70 28 121t73 85t100 50t113 16q57 0 113.5 -16t100.5 -50t71.5 -85t27.5 -121v-895h-184v127q-51 -41 -105 -74 q-45 -29 -95 -51t-91 -22q-82 0 -139.5 57t-57.5 139zM246 258q0 -43 7 -67.5t19 -24.5q16 0 61.5 22.5t92.5 51.5q55 33 123 71v256l-242 -75q-43 -18 -52 -57.5t-9 -106.5v-70zM322 1296l206 269h179l-207 -269h-178z" />
<glyph unicode="&#xe2;" d="M61 176v182q0 78 15.5 127.5t42 82t64.5 52t81 35.5l285 86v154q0 33 -11.5 50.5t-28.5 25.5t-41 10t-48 2q-49 0 -89 -15.5t-40 -72.5v-41h-185v41q0 70 28 121t73 85t100 50t113 16q57 0 113.5 -16t100.5 -50t71.5 -85t27.5 -121v-895h-184v127q-51 -41 -105 -74 q-45 -29 -95 -51t-91 -22q-82 0 -139.5 57t-57.5 139zM86 1305l254 303h100l254 -303h-164l-137 159h-6l-137 -159h-164zM246 258q0 -43 7 -67.5t19 -24.5q16 0 61.5 22.5t92.5 51.5q55 33 123 71v256l-242 -75q-43 -18 -52 -57.5t-9 -106.5v-70z" />
<glyph unicode="&#xe3;" d="M61 176v182q0 78 15.5 127.5t42 82t64.5 52t81 35.5l285 86v154q0 33 -11.5 50.5t-28.5 25.5t-41 10t-48 2q-49 0 -89 -15.5t-40 -72.5v-41h-185v41q0 70 28 121t73 85t100 50t113 16q57 0 113.5 -16t100.5 -50t71.5 -85t27.5 -121v-895h-184v127q-51 -41 -105 -74 q-45 -29 -95 -51t-91 -22q-82 0 -139.5 57t-57.5 139zM135 1464q16 18 48 41t79 23q37 0 73 -11.5t69.5 -24.5t68.5 -24.5t70 -11.5q41 0 66.5 17.5t47.5 39.5l11 -155q-16 -18 -47 -42t-78 -24q-37 0 -73 11.5t-69.5 24.5t-68.5 24.5t-70 11.5q-41 0 -67.5 -16.5 t-49.5 -38.5zM246 258q0 -43 7 -67.5t19 -24.5q16 0 61.5 22.5t92.5 51.5q55 33 123 71v256l-242 -75q-43 -18 -52 -57.5t-9 -106.5v-70z" />
<glyph unicode="&#xe4;" d="M61 176v182q0 78 15.5 127.5t42 82t64.5 52t81 35.5l285 86v154q0 33 -11.5 50.5t-28.5 25.5t-41 10t-48 2q-49 0 -89 -15.5t-40 -72.5v-41h-185v41q0 70 28 121t73 85t100 50t113 16q57 0 113.5 -16t100.5 -50t71.5 -85t27.5 -121v-895h-184v127q-51 -41 -105 -74 q-45 -29 -95 -51t-91 -22q-82 0 -139.5 57t-57.5 139zM207 1352q0 41 27.5 69.5t66.5 28.5q41 0 69.5 -28.5t28.5 -69.5q0 -39 -28.5 -67t-69.5 -28q-39 0 -66.5 28t-27.5 67zM246 258q0 -43 7 -67.5t19 -24.5q16 0 61.5 22.5t92.5 51.5q55 33 123 71v256l-242 -75 q-43 -18 -52 -57.5t-9 -106.5v-70zM442 1352q0 41 28 69.5t69 28.5q39 0 66.5 -28.5t27.5 -69.5q0 -39 -27.5 -67t-66.5 -28q-41 0 -69 28t-28 67z" />
<glyph unicode="&#xe5;" d="M61 176v182q0 78 15.5 127.5t42 82t64.5 52t81 35.5l285 86v154q0 33 -11.5 50.5t-28.5 25.5t-41 10t-48 2q-49 0 -89 -15.5t-40 -72.5v-41h-185v41q0 70 28 121t73 85t100 50t113 16q57 0 113.5 -16t100.5 -50t71.5 -85t27.5 -121v-895h-184v127q-51 -41 -105 -74 q-45 -29 -95 -51t-91 -22q-82 0 -139.5 57t-57.5 139zM190 1454q0 49 18.5 92t50.5 75t75 50.5t92 18.5t92 -18.5t75 -50.5t50.5 -75t18.5 -92t-18.5 -92t-50.5 -75t-75 -50t-92 -18t-92 18t-75 50t-50.5 75t-18.5 92zM246 258q0 -43 7 -67.5t19 -24.5q16 0 61.5 22.5 t92.5 51.5q55 33 123 71v256l-242 -75q-43 -18 -52 -57.5t-9 -106.5v-70zM332 1454q0 -39 27.5 -66.5t66.5 -27.5t66.5 27.5t27.5 66.5t-27.5 66.5t-66.5 27.5t-66.5 -27.5t-27.5 -66.5z" />
<glyph unicode="&#xe6;" horiz-adv-x="1292" d="M61 176v182q0 78 15.5 127.5t42 82t64.5 52t81 35.5l285 86v164q-2 29 -14.5 44.5t-30 23.5t-40 9t-44.5 1q-49 0 -89 -15.5t-40 -72.5v-41h-185v41q0 70 28 121t73 85t100 50t113 16q59 0 115.5 -17t101.5 -52q37 33 84 51t100 18h127q57 0 106.5 -21.5t86.5 -58 t58.5 -86t21.5 -106.5v-348h-488v-303q0 -37 24.5 -58.5t63.5 -21.5h127q41 0 64.5 23.5t23.5 64.5v147h185v-147q0 -57 -21.5 -106.5t-58.5 -86t-86 -58t-107 -21.5h-127q-86 0 -152.5 46t-97.5 117l-22 -16q-51 -41 -105 -74q-45 -29 -95 -51t-91 -22q-82 0 -139.5 57 t-57.5 139zM246 258q0 -43 7 -67.5t19 -24.5q16 0 61.5 22.5t92.5 51.5q55 33 123 71v256l-242 -75q-43 -18 -52 -57.5t-9 -106.5v-70zM733 731h303v164q0 41 -23.5 64.5t-64.5 23.5h-127q-39 0 -63.5 -21.5t-24.5 -58.5v-172z" />
<glyph unicode="&#xe7;" horiz-adv-x="825" d="M102 252v643q0 57 21.5 106.5t58.5 86t86 58t107 21.5h127q57 0 106 -21.5t86 -58t58.5 -86t21.5 -106.5v-154h-184v154q0 41 -23.5 64.5t-64.5 23.5h-127q-41 0 -64.5 -23.5t-23.5 -64.5v-643q0 -41 23.5 -64.5t64.5 -23.5h127q41 0 64.5 23.5t23.5 64.5v147h184v-147 q0 -55 -21.5 -105.5t-58.5 -87t-86 -58t-106 -21.5h-35l-8 -35q82 -18 134 -85t52 -149q0 -49 -18.5 -92t-52 -75.5t-82 -51t-105.5 -18.5q-37 0 -76 13t-92 48l72 113q35 -16 54.5 -23.5t41.5 -7.5q53 0 84 26.5t31 67.5q0 35 -24.5 64.5t-67.5 29.5h-109l25 179 q-98 16 -161 92t-63 176z" />
<glyph unicode="&#xe8;" d="M102 252v643q0 57 21.5 106.5t58.5 86t86 58t107 21.5h127q57 0 106 -21.5t86 -58t58.5 -86t21.5 -106.5v-348h-487v-295q0 -41 23.5 -64.5t64.5 -23.5h127q41 0 64.5 23.5t23.5 64.5v147h184v-147q0 -57 -21.5 -106.5t-58.5 -86t-86 -58t-106 -21.5h-127 q-57 0 -106.5 21.5t-86.5 58t-58.5 86t-21.5 106.5zM203 1567h178l207 -269h-178zM287 731h303v164q0 41 -23.5 64.5t-64.5 23.5h-127q-41 0 -64.5 -23.5t-23.5 -64.5v-164z" />
<glyph unicode="&#xe9;" d="M102 252v643q0 57 21.5 106.5t58.5 86t86 58t107 21.5h127q57 0 106 -21.5t86 -58t58.5 -86t21.5 -106.5v-348h-487v-295q0 -41 23.5 -64.5t64.5 -23.5h127q41 0 64.5 23.5t23.5 64.5v147h184v-147q0 -57 -21.5 -106.5t-58.5 -86t-86 -58t-106 -21.5h-127 q-57 0 -106.5 21.5t-86.5 58t-58.5 86t-21.5 106.5zM258 1298l207 269h178l-207 -269h-178zM287 731h303v164q0 41 -23.5 64.5t-64.5 23.5h-127q-41 0 -64.5 -23.5t-23.5 -64.5v-164z" />
<glyph unicode="&#xea;" d="M102 252v643q0 57 21.5 106.5t58.5 86t86 58t107 21.5h127q57 0 106 -21.5t86 -58t58.5 -86t21.5 -106.5v-348h-487v-295q0 -41 23.5 -64.5t64.5 -23.5h127q41 0 64.5 23.5t23.5 64.5v147h184v-147q0 -57 -21.5 -106.5t-58.5 -86t-86 -58t-106 -21.5h-127 q-57 0 -106.5 21.5t-86.5 58t-58.5 86t-21.5 106.5zM131 1305l254 303h100l254 -303h-164l-137 159h-6l-137 -159h-164zM287 731h303v164q0 41 -23.5 64.5t-64.5 23.5h-127q-41 0 -64.5 -23.5t-23.5 -64.5v-164z" />
<glyph unicode="&#xeb;" d="M102 252v643q0 57 21.5 106.5t58.5 86t86 58t107 21.5h127q57 0 106 -21.5t86 -58t58.5 -86t21.5 -106.5v-348h-487v-295q0 -41 23.5 -64.5t64.5 -23.5h127q41 0 64.5 23.5t23.5 64.5v147h184v-147q0 -57 -21.5 -106.5t-58.5 -86t-86 -58t-106 -21.5h-127 q-57 0 -106.5 21.5t-86.5 58t-58.5 86t-21.5 106.5zM223 1352q0 41 28 69.5t66 28.5q41 0 70 -28.5t29 -69.5q0 -39 -29 -67t-70 -28q-39 0 -66.5 28t-27.5 67zM287 731h303v164q0 41 -23.5 64.5t-64.5 23.5h-127q-41 0 -64.5 -23.5t-23.5 -64.5v-164zM459 1352 q0 41 27.5 69.5t68.5 28.5q39 0 66.5 -28.5t27.5 -69.5q0 -39 -27.5 -67t-66.5 -28q-41 0 -68.5 28t-27.5 67z" />
<glyph unicode="&#xec;" horiz-adv-x="632" d="M-6 1567h178l207 -269h-178zM201 252v895h186v-895q0 -41 24.5 -64.5t65.5 -23.5h123v-184h-127q-57 0 -106.5 21.5t-86 58t-58 87t-21.5 105.5z" />
<glyph unicode="&#xed;" horiz-adv-x="514" d="M68 1298l206 269h179l-207 -269h-178zM84 252v895h186v-895q0 -41 24.5 -64.5t65.5 -23.5h123v-184h-127q-57 0 -106 21.5t-86 58t-58.5 87t-21.5 105.5z" />
<glyph unicode="&#xee;" horiz-adv-x="528" d="M-76 1305l254 303h101l253 -303h-163l-138 159h-6l-137 -159h-164zM135 252v895h187v-895q0 -41 24.5 -64.5t65.5 -23.5h123v-184h-127q-57 0 -106.5 21.5t-86.5 58t-58.5 87t-21.5 105.5z" />
<glyph unicode="&#xef;" horiz-adv-x="550" d="M-2 1352q0 41 27.5 69.5t66.5 28.5q41 0 69.5 -28.5t28.5 -69.5q0 -39 -28.5 -67t-69.5 -28q-39 0 -66.5 28t-27.5 67zM119 252v895h186v-895q0 -41 24.5 -64.5t65.5 -23.5h123v-184h-127q-57 0 -106 21.5t-86 58t-58.5 87t-21.5 105.5zM233 1352q0 41 28 69.5t69 28.5 q39 0 66.5 -28.5t27.5 -69.5q0 -39 -27.5 -67t-66.5 -28q-41 0 -69 28t-28 67z" />
<glyph unicode="&#xf0;" horiz-adv-x="860" d="M82 254v362q0 55 21.5 105.5t58.5 87.5t86 58.5t106 21.5h127q33 0 60 -10q14 -6 28 -11v125h-182v170h182v174q0 41 -23.5 64.5t-64.5 23.5h-127q-41 0 -64.5 -23.5t-23.5 -64.5v-176h-184v176q0 57 21.5 106.5t58.5 86.5t86 58.5t106 21.5h127q57 0 106.5 -21.5 t86.5 -58.5t58.5 -86t21.5 -107v-174h135l2 -170h-137v-739q0 -55 -21.5 -105.5t-58.5 -87t-86 -58t-107 -21.5h-127q-57 0 -106 21.5t-86 58t-58.5 87t-21.5 105.5zM266 254q0 -41 23.5 -64.5t64.5 -23.5h127q41 0 64.5 23.5t23.5 64.5v364q0 41 -23.5 64t-64.5 23h-127 q-41 0 -64.5 -24t-23.5 -65v-362z" />
<glyph unicode="&#xf1;" horiz-adv-x="907" d="M123 0v1147h184v-127q51 41 105 74q45 29 95 51t91 22t77 -15t62.5 -43t42 -63.5t15.5 -76.5v-969h-185v887q0 43 -7 67.5t-19 24.5q-16 0 -61.5 -21.5t-92.5 -50.5q-55 -33 -123 -73v-834h-184zM193 1464q16 18 47.5 41t78.5 23q37 0 73 -11.5t70 -24.5t68.5 -24.5 t69.5 -11.5q41 0 66.5 17.5t48.5 39.5l10 -155q-16 -18 -47 -42t-78 -24q-37 0 -72.5 11.5t-69.5 24.5t-69 24.5t-70 11.5q-41 0 -67.5 -16.5t-48.5 -38.5z" />
<glyph unicode="&#xf2;" horiz-adv-x="876" d="M102 252v643q0 57 21.5 106.5t58.5 86t86 58t107 21.5h127q57 0 106 -21.5t86 -58t58.5 -86t21.5 -106.5v-643q0 -55 -21.5 -105.5t-58.5 -87t-86 -58t-106 -21.5h-127q-57 0 -106.5 21.5t-86.5 58t-58.5 87t-21.5 105.5zM141 1567h178l207 -269h-178zM287 252 q0 -41 23.5 -64.5t64.5 -23.5h127q41 0 64.5 14.5t23.5 73.5v643q0 41 -23.5 64.5t-64.5 23.5h-127q-41 0 -64.5 -23.5t-23.5 -64.5v-643z" />
<glyph unicode="&#xf3;" horiz-adv-x="876" d="M102 252v643q0 57 21.5 106.5t58.5 86t86 58t107 21.5h127q57 0 106 -21.5t86 -58t58.5 -86t21.5 -106.5v-643q0 -55 -21.5 -105.5t-58.5 -87t-86 -58t-106 -21.5h-127q-57 0 -106.5 21.5t-86.5 58t-58.5 87t-21.5 105.5zM279 1298l206 269h179l-207 -269h-178zM287 252 q0 -41 23.5 -64.5t64.5 -23.5h127q41 0 64.5 14.5t23.5 73.5v643q0 41 -23.5 64.5t-64.5 23.5h-127q-41 0 -64.5 -23.5t-23.5 -64.5v-643z" />
<glyph unicode="&#xf4;" horiz-adv-x="876" d="M102 252v643q0 57 21.5 106.5t58.5 86t86 58t107 21.5h127q57 0 106 -21.5t86 -58t58.5 -86t21.5 -106.5v-643q0 -55 -21.5 -105.5t-58.5 -87t-86 -58t-106 -21.5h-127q-57 0 -106.5 21.5t-86.5 58t-58.5 87t-21.5 105.5zM131 1305l254 303h100l254 -303h-164l-137 159 h-6l-137 -159h-164zM287 252q0 -41 23.5 -64.5t64.5 -23.5h127q41 0 64.5 14.5t23.5 73.5v643q0 41 -23.5 64.5t-64.5 23.5h-127q-41 0 -64.5 -23.5t-23.5 -64.5v-643z" />
<glyph unicode="&#xf5;" horiz-adv-x="876" d="M102 252v643q0 57 21.5 106.5t58.5 86t86 58t107 21.5h127q57 0 106 -21.5t86 -58t58.5 -86t21.5 -106.5v-643q0 -55 -21.5 -105.5t-58.5 -87t-86 -58t-106 -21.5h-127q-57 0 -106.5 21.5t-86.5 58t-58.5 87t-21.5 105.5zM166 1464q16 18 48 41t79 23q37 0 72.5 -11.5 t69.5 -24.5t69 -24.5t69 -11.5q41 0 67 17.5t48 39.5l10 -155q-16 -18 -46.5 -42t-78.5 -24q-37 0 -72.5 11.5t-69.5 24.5t-68.5 24.5t-69.5 11.5q-41 0 -67.5 -16.5t-49.5 -38.5zM287 252q0 -41 23.5 -64.5t64.5 -23.5h127q41 0 64.5 14.5t23.5 73.5v643q0 41 -23.5 64.5 t-64.5 23.5h-127q-41 0 -64.5 -23.5t-23.5 -64.5v-643z" />
<glyph unicode="&#xf6;" horiz-adv-x="876" d="M102 252v643q0 57 21.5 106.5t58.5 86t86 58t107 21.5h127q57 0 106 -21.5t86 -58t58.5 -86t21.5 -106.5v-643q0 -55 -21.5 -105.5t-58.5 -87t-86 -58t-106 -21.5h-127q-57 0 -106.5 21.5t-86.5 58t-58.5 87t-21.5 105.5zM223 1352q0 41 28 69.5t66 28.5q41 0 70 -28.5 t29 -69.5q0 -39 -29 -67t-70 -28q-39 0 -66.5 28t-27.5 67zM287 252q0 -41 23.5 -64.5t64.5 -23.5h127q41 0 64.5 14.5t23.5 73.5v643q0 41 -23.5 64.5t-64.5 23.5h-127q-41 0 -64.5 -23.5t-23.5 -64.5v-643zM459 1352q0 41 27.5 69.5t68.5 28.5q39 0 66.5 -28.5t27.5 -69.5 q0 -39 -27.5 -67t-66.5 -28q-41 0 -68.5 28t-27.5 67z" />
<glyph unicode="&#xf7;" horiz-adv-x="880" d="M82 629v182h717v-182h-717zM338 436q0 41 29.5 72t70.5 31t72 -31t31 -72t-31 -70.5t-72 -29.5t-70.5 29.5t-29.5 70.5zM338 1006q0 41 29.5 71.5t70.5 30.5t72 -30.5t31 -71.5t-31 -71t-72 -30t-70.5 30t-29.5 71z" />
<glyph unicode="&#xf8;" horiz-adv-x="915" d="M102 -57l74 176q-35 59 -35 133v643q0 57 21.5 106.5t58.5 86t86 58t107 21.5h127q39 0 69 -8l19 45h164l-52 -125q35 -35 53.5 -83t18.5 -101v-643q0 -55 -21.5 -105.5t-58.5 -87t-86 -58t-106 -21.5h-127q-63 0 -121 26l-27 -63h-164zM326 477l211 506h-123 q-41 0 -64.5 -23.5t-23.5 -64.5v-418zM362 176q23 -12 52 -12h127q41 0 64.5 14.5t23.5 73.5v559z" />
<glyph unicode="&#xf9;" horiz-adv-x="907" d="M113 176v971h184v-889q0 -43 7 -67.5t20 -24.5q16 0 61 22.5t92 51.5q55 33 123 71v836h184v-1147h-184v127q-51 -41 -104 -74q-45 -29 -95.5 -51t-91.5 -22q-82 0 -139 57t-57 139zM176 1567h178l207 -269h-178z" />
<glyph unicode="&#xfa;" horiz-adv-x="907" d="M113 176v971h184v-889q0 -43 7 -67.5t20 -24.5q16 0 61 22.5t92 51.5q55 33 123 71v836h184v-1147h-184v127q-51 -41 -104 -74q-45 -29 -95.5 -51t-91.5 -22q-82 0 -139 57t-57 139zM340 1298l207 269h178l-207 -269h-178z" />
<glyph unicode="&#xfb;" horiz-adv-x="907" d="M113 176v971h184v-889q0 -43 7 -67.5t20 -24.5q16 0 61 22.5t92 51.5q55 33 123 71v836h184v-1147h-184v127q-51 -41 -104 -74q-45 -29 -95.5 -51t-91.5 -22q-82 0 -139 57t-57 139zM135 1305l254 303h100l254 -303h-163l-138 159h-6l-137 -159h-164z" />
<glyph unicode="&#xfc;" horiz-adv-x="907" d="M113 176v971h184v-889q0 -43 7 -67.5t20 -24.5q16 0 61 22.5t92 51.5q55 33 123 71v836h184v-1147h-184v127q-51 -41 -104 -74q-45 -29 -95.5 -51t-91.5 -22q-82 0 -139 57t-57 139zM225 1352q0 41 28 69.5t66 28.5q41 0 70 -28.5t29 -69.5q0 -39 -29 -67t-70 -28 q-39 0 -66.5 28t-27.5 67zM461 1352q0 41 27.5 69.5t68.5 28.5q39 0 66.5 -28.5t27.5 -69.5q0 -39 -27.5 -67t-66.5 -28q-41 0 -68.5 28t-27.5 67z" />
<glyph unicode="&#xfd;" horiz-adv-x="768" d="M20 1145l187 -1096q4 -27 29.5 -48t58.5 -21h80l-47 -299h176l244 1464h-185l-153 -955q-2 -6 -5.5 -16t-15.5 -10h-6q-6 0 -9 5t-7 9q-4 6 -5 12l-153 955h-189zM264 1298l207 269h178l-207 -269h-178z" />
<glyph unicode="&#xfe;" horiz-adv-x="897" d="M113 -295v1860h184v-543q51 41 104 74q45 29 95.5 50t91.5 21q82 0 139 -57t57 -139v-719q0 -55 -21.5 -105.5t-58 -87t-86 -58t-106.5 -21.5h-127q-45 0 -88 16v-291h-184zM297 252q0 -41 23.5 -64.5t64.5 -23.5h127q41 0 64.5 23.5t23.5 64.5v637q0 43 -7 67.5 t-20 24.5q-16 0 -61 -21.5t-92 -50.5q-55 -33 -123 -73v-584z" />
<glyph unicode="&#xff;" horiz-adv-x="768" d="M20 1145h189l153 -955q0 -6 5 -12q4 -4 7 -9t9 -5h6q12 0 15.5 10t5.5 16l153 955h185l-244 -1464h-176l47 299h-80q-33 0 -58.5 21.5t-29.5 47.5zM174 1352q0 41 27.5 69.5t66.5 28.5q41 0 70 -28.5t29 -69.5q0 -39 -29 -67t-70 -28q-39 0 -66.5 28t-27.5 67zM410 1352 q0 41 27.5 69.5t68.5 28.5q39 0 66.5 -28.5t27.5 -69.5q0 -39 -27.5 -67t-66.5 -28q-41 0 -68.5 28t-27.5 67z" />
<glyph unicode="&#x152;" horiz-adv-x="1271" d="M113 274v1082q0 61 23.5 115.5t63.5 94.5t93 62.5t115 22.5h122q53 0 111 -21v8h590v-184h-406v-459h351v-184h-351v-627h406v-184h-590q-57 -20 -111 -20h-122q-61 0 -114.5 23.5t-93.5 63t-63.5 93t-23.5 114.5zM297 274q0 -49 30.5 -79.5t80.5 -30.5h122q49 0 80 30.5 t31 79.5v1082q0 49 -30.5 79.5t-80.5 30.5h-122q-49 0 -80 -30.5t-31 -79.5v-1082z" />
<glyph unicode="&#x153;" horiz-adv-x="1333" d="M102 252v643q0 57 21.5 106.5t58.5 86t86 58t107 21.5h127q53 0 98 -18.5t82 -48.5q35 31 81 49t99 18h127q57 0 106.5 -21.5t86.5 -58t58.5 -86t21.5 -106.5v-348h-488v-295q0 -41 23.5 -64.5t64.5 -23.5h127q41 0 64.5 23.5t23.5 64.5v147h185v-147q0 -57 -21.5 -106.5 t-58.5 -86t-86 -58t-107 -21.5h-127q-106 0 -180 67q-78 -68 -180 -67h-127q-57 0 -106.5 21.5t-86.5 58t-58.5 87t-21.5 105.5zM287 252q0 -41 23.5 -64.5t64.5 -23.5h127q37 0 60.5 12t27.5 64v655q0 41 -23.5 64.5t-64.5 23.5h-127q-41 0 -64.5 -23.5t-23.5 -64.5v-643z M774 731h303v164q0 41 -23.5 64.5t-64.5 23.5h-127q-41 0 -64.5 -23.5t-23.5 -64.5v-164z" />
<glyph unicode="&#x178;" horiz-adv-x="935" d="M20 1638h189l240 -976q0 -6 4 -13q4 -4 7 -9t9 -5h6q12 0 15.5 10t5.5 17l235 976h184l-264 -1118q-6 -25 -30.5 -47t-57.5 -22v-451h-182v451q-33 0 -58.5 21.5t-29.5 47.5zM256 1761q0 41 27.5 70t66.5 29q41 0 70 -29t29 -70q0 -39 -29 -66.5t-70 -27.5 q-39 0 -66.5 27.5t-27.5 66.5zM492 1761q0 41 27.5 70t68.5 29q39 0 66.5 -29t27.5 -70q0 -39 -27.5 -66.5t-66.5 -27.5q-41 0 -68.5 27.5t-27.5 66.5z" />
<glyph unicode="&#x2c6;" horiz-adv-x="716" d="M63 1305l254 303h101l254 -303h-164l-137 159h-6l-138 -159h-164z" />
<glyph unicode="&#x2dc;" horiz-adv-x="628" d="M49 1464q16 18 48 41t79 23q37 0 73 -11.5t69.5 -24.5t68.5 -24.5t70 -11.5q41 0 66.5 17.5t47.5 39.5l11 -155q-16 -18 -47 -42t-78 -24q-37 0 -73 11.5t-69.5 24.5t-68.5 24.5t-70 11.5q-41 0 -67.5 -16.5t-49.5 -38.5z" />
<glyph unicode="&#x2000;" horiz-adv-x="1060" />
<glyph unicode="&#x2001;" horiz-adv-x="2120" />
<glyph unicode="&#x2002;" horiz-adv-x="1060" />
<glyph unicode="&#x2003;" horiz-adv-x="2120" />
<glyph unicode="&#x2004;" horiz-adv-x="706" />
<glyph unicode="&#x2005;" horiz-adv-x="530" />
<glyph unicode="&#x2006;" horiz-adv-x="353" />
<glyph unicode="&#x2007;" horiz-adv-x="353" />
<glyph unicode="&#x2008;" horiz-adv-x="265" />
<glyph unicode="&#x2009;" horiz-adv-x="424" />
<glyph unicode="&#x200a;" horiz-adv-x="117" />
<glyph unicode="&#x2010;" horiz-adv-x="655" d="M82 629v182h491v-182h-491z" />
<glyph unicode="&#x2011;" horiz-adv-x="655" d="M82 629v182h491v-182h-491z" />
<glyph unicode="&#x2012;" horiz-adv-x="655" d="M82 629v182h491v-182h-491z" />
<glyph unicode="&#x2013;" horiz-adv-x="671" d="M0 629v182h672v-182h-672z" />
<glyph unicode="&#x2014;" horiz-adv-x="1241" d="M0 629v182h1241v-182h-1241z" />
<glyph unicode="&#x2018;" horiz-adv-x="444" d="M133 1405q0 39 14 78l60 153l151 -32l-59 -156q-6 -20 -6 -45q0 -41 19.5 -64.5t70.5 -42.5l-94 -90q-86 31 -121 80t-35 119z" />
<glyph unicode="&#x2019;" horiz-adv-x="444" d="M61 1554l95 91q86 -31 120.5 -80t34.5 -119q0 -39 -14 -78l-59 -154l-152 33l59 156q6 23 7 45q0 41 -19.5 64.5t-71.5 41.5z" />
<glyph unicode="&#x201a;" horiz-adv-x="444" d="M61 18l95 91q86 -31 120.5 -80t34.5 -119q0 -39 -14 -78l-59 -154l-152 33l59 156q6 20 7 45q0 41 -19.5 64.5t-71.5 41.5z" />
<glyph unicode="&#x201c;" horiz-adv-x="710" d="M133 1405q0 39 14 78l60 153l151 -32l-59 -156q-6 -20 -6 -45q0 -41 19.5 -64.5t70.5 -42.5l-94 -90q-86 31 -121 80t-35 119zM399 1405q0 39 15 78l59 153l152 -32l-60 -156q-6 -20 -6 -45q0 -41 19.5 -64.5t70.5 -42.5l-94 -90q-86 31 -121 80t-35 119z" />
<glyph unicode="&#x201d;" horiz-adv-x="710" d="M61 1554l95 91q86 -31 120.5 -80t34.5 -119q0 -39 -14 -78l-59 -154l-152 33l59 156q6 23 7 45q0 41 -19.5 64.5t-71.5 41.5zM328 1554l94 91q86 -31 121 -80t35 -119q0 -39 -15 -78l-59 -154l-152 33l60 156q6 23 6 45q0 41 -19.5 64.5t-70.5 41.5z" />
<glyph unicode="&#x201e;" horiz-adv-x="710" d="M61 12l95 90q86 -31 120.5 -80t34.5 -118q0 -39 -14 -78l-59 -154l-152 33l59 156q6 20 7 45q0 41 -19.5 64.5t-71.5 41.5zM328 12l94 90q86 -31 121 -80t35 -118q0 -39 -15 -78l-59 -154l-152 33l60 156q6 20 6 45q0 41 -19.5 64.5t-70.5 41.5z" />
<glyph unicode="&#x2022;" horiz-adv-x="561" d="M133 551q0 66 46 112t112 46t112 -46t46 -112t-46.5 -112t-111.5 -46q-66 0 -112 46t-46 112z" />
<glyph unicode="&#x2026;" horiz-adv-x="1226" d="M164 100q0 41 29.5 72t70.5 31t72 -31t31 -72t-31 -70.5t-72 -29.5t-70.5 29.5t-29.5 70.5zM512 100q0 41 29.5 72t70.5 31t72 -31t31 -72t-31 -70.5t-72 -29.5t-70.5 29.5t-29.5 70.5zM860 100q0 41 30 72t71 31t71.5 -31t30.5 -72t-30.5 -70.5t-71.5 -29.5t-71 29.5 t-30 70.5z" />
<glyph unicode="&#x202f;" horiz-adv-x="424" />
<glyph unicode="&#x2039;" horiz-adv-x="724" d="M61 489l412 302l150 -70l-324 -232l324 -231l-150 -70z" />
<glyph unicode="&#x203a;" horiz-adv-x="724" d="M102 258l324 231l-324 232l150 70l412 -302l-412 -301z" />
<glyph unicode="&#x205f;" horiz-adv-x="530" />
<glyph unicode="&#x20ac;" horiz-adv-x="999" d="M72 635v143h112v74h-112v143h112v299q0 61 23.5 115.5t63.5 94.5t93.5 62.5t114.5 22.5h123q61 0 115.5 -22.5t94.5 -62.5t62.5 -94t22.5 -116v-258h-184v258q0 49 -31 80t-80 31h-123q-49 0 -79.5 -31t-30.5 -80v-299h268v-143h-268v-74h268v-143h-268v-361 q0 -49 30.5 -79.5t79.5 -30.5h123q41 0 62.5 8t31 22.5t11.5 35t2 44.5v324h188v-324q0 -61 -22.5 -114.5t-62.5 -93t-94 -63t-116 -23.5h-123q-61 0 -114.5 23.5t-93.5 63t-63.5 93t-23.5 114.5v361h-112z" />
<glyph unicode="&#x2122;" horiz-adv-x="1234" d="M92 1546v92h379v-92h-143v-735h-92v735h-144zM549 811l35 827h182l80 -602l80 602h186l31 -827h-94l-29 735h-12l-117 -721h-90l-117 721h-12l-29 -735h-94z" />
<glyph unicode="&#xe000;" horiz-adv-x="1146" d="M0 0v1147h1147v-1147h-1147z" />
</font>
</defs>
</svg>
